<svg width="388" height="400" viewBox="0 0 388 400" fill="none" xmlns="http://www.w3.org/2000/svg">
<path d="M373.256 134.189C364.852 113.93 347.745 92.0213 334.34 85.1184C343.894 103.626 350.496 123.434 353.998 143.943L354.048 144.293C332.089 89.6203 294.923 67.6111 264.561 19.641C263.01 17.19 261.459 14.739 260.009 12.238C259.258 10.9374 258.558 9.58685 257.858 8.23628C256.607 5.78526 255.607 3.23419 254.957 0.583086C254.957 0.332982 254.756 0.132898 254.506 0.0828773C254.406 -0.0171645 254.306 -0.0171645 254.156 0.0328564C254.106 0.0328564 254.106 0.0828773 254.056 0.0828773C254.006 0.0828773 253.956 0.132898 253.906 0.182919L253.956 0.0328564C205.236 28.5448 188.729 81.3168 187.228 107.728C167.77 109.078 149.212 116.231 133.856 128.286C132.255 126.936 130.605 125.685 128.854 124.485C124.452 109.028 124.252 92.6716 128.304 77.1151C110.396 85.7687 94.5395 98.0738 81.6341 113.18H81.5341C73.8309 103.426 74.3811 71.3126 74.8313 64.6098C72.5803 65.5102 70.3794 66.6607 68.3786 68.0613C61.5757 72.9133 55.2731 78.3156 49.4206 84.2681C42.7679 91.0209 36.7153 98.2739 31.3131 106.027C18.8579 123.685 10.0042 143.643 5.30222 164.752L5.10213 166.052C4.40184 170.054 3.75157 174.106 3.20134 178.157C3.20134 178.307 3.15132 178.457 3.15132 178.557C1.45061 187.361 0.400167 196.315 0 205.269V206.269C0.100042 313.364 86.9864 400.05 194.031 400C288.32 399.9 368.904 332.022 384.911 239.083C385.261 236.582 385.511 234.131 385.811 231.58C389.813 198.566 385.461 165.102 373.256 134.189ZM149.813 285.952C150.713 286.402 151.563 286.853 152.514 287.253L152.664 287.353C151.663 286.903 150.713 286.453 149.813 285.952Z" fill="url(#paint0_linear_915_606)"/>
<path d="M373.256 134.189C364.852 113.931 347.745 92.0214 334.34 85.1185C343.894 103.626 350.496 123.435 353.998 143.943V144.143L354.048 144.343C369.004 187.111 366.853 233.981 347.995 275.198C325.786 322.868 272.014 371.738 187.828 369.387C96.8405 366.786 16.707 299.308 1.75073 210.871C-1.00042 196.915 1.75073 189.862 3.1013 178.508C1.25052 187.311 0.200084 196.265 0 205.269V206.269C0.100042 313.364 86.9864 400.05 194.031 399.95C288.32 399.85 368.904 331.972 384.911 239.033C385.261 236.532 385.511 234.081 385.811 231.53C389.813 198.566 385.461 165.102 373.256 134.189Z" fill="url(#paint1_radial_915_606)"/>
<path d="M373.256 134.189C364.852 113.931 347.745 92.0214 334.34 85.1185C343.894 103.626 350.496 123.435 353.998 143.943V144.143L354.048 144.343C369.004 187.111 366.853 233.981 347.995 275.198C325.786 322.868 272.014 371.738 187.828 369.387C96.8405 366.786 16.707 299.308 1.75073 210.871C-1.00042 196.915 1.75073 189.862 3.1013 178.508C1.25052 187.311 0.200084 196.265 0 205.269V206.269C0.100042 313.364 86.9864 400.05 194.031 399.95C288.32 399.85 368.904 331.972 384.911 239.033C385.261 236.532 385.511 234.081 385.811 231.53C389.813 198.566 385.461 165.102 373.256 134.189Z" fill="url(#paint2_radial_915_606)"/>
<path d="M279.016 156.999L280.217 157.899C275.365 149.245 269.262 141.342 262.209 134.439C201.984 74.1139 246.453 3.73454 253.906 0.133031L253.956 0.0329895C205.235 28.5449 188.729 81.317 187.228 107.728C189.479 107.578 191.73 107.378 194.031 107.378C229.245 107.428 261.709 126.386 279.016 156.999Z" fill="url(#paint3_radial_915_606)"/>
<path d="M194.18 169.003C193.88 173.805 176.823 190.462 170.871 190.462C115.748 190.462 106.794 223.826 106.794 223.826C109.245 251.888 128.803 275.048 152.463 287.253C153.563 287.803 154.614 288.303 155.714 288.803C157.615 289.654 159.516 290.404 161.417 291.154C169.52 294.006 178.024 295.656 186.627 296.006C283.268 300.558 301.975 180.458 232.246 145.594C248.703 143.443 265.36 147.494 279.016 156.948C261.659 126.335 229.245 107.428 194.08 107.328C191.779 107.328 189.529 107.528 187.278 107.678C167.819 109.028 149.262 116.181 133.905 128.236C136.857 130.737 140.208 134.089 147.211 140.992C160.366 153.997 194.13 167.453 194.18 169.003Z" fill="url(#paint4_radial_915_606)"/>
<path d="M194.18 169.003C193.88 173.805 176.823 190.462 170.871 190.462C115.748 190.462 106.794 223.826 106.794 223.826C109.245 251.888 128.803 275.048 152.463 287.253C153.563 287.803 154.614 288.303 155.714 288.803C157.615 289.654 159.516 290.404 161.417 291.154C169.52 294.006 178.024 295.656 186.627 296.006C283.268 300.558 301.975 180.458 232.246 145.594C248.703 143.443 265.36 147.494 279.016 156.948C261.659 126.335 229.245 107.428 194.08 107.328C191.779 107.328 189.529 107.528 187.278 107.678C167.819 109.028 149.262 116.181 133.905 128.236C136.857 130.737 140.208 134.089 147.211 140.992C160.366 153.997 194.13 167.453 194.18 169.003Z" fill="url(#paint5_radial_915_606)"/>
<path d="M124.852 121.834C126.403 122.835 127.704 123.685 128.854 124.485C124.452 109.029 124.252 92.6719 128.304 77.1154C110.396 85.769 94.5398 98.0742 81.6344 113.18C82.6348 113.13 110.747 112.63 124.852 121.834Z" fill="url(#paint6_radial_915_606)"/>
<path d="M1.75029 210.871C16.7065 299.258 96.84 366.786 187.778 369.337C271.963 371.738 325.736 322.868 347.945 275.148C366.753 233.931 368.904 187.061 353.997 144.293V144.093C353.997 143.943 353.947 143.843 353.997 143.893L354.047 144.243C360.95 189.162 338.091 232.63 302.376 262.043L302.276 262.293C232.697 318.966 166.119 296.457 152.663 287.303C151.713 286.853 150.763 286.403 149.862 285.903C109.295 266.494 92.5382 229.579 96.1397 197.866C76.4815 198.166 58.474 186.811 50.2205 168.954C71.8796 155.698 98.8409 154.598 121.5 166.102C144.46 176.507 170.571 177.557 194.281 168.954C194.231 167.403 160.467 153.947 147.311 140.992C140.258 134.039 136.957 130.738 134.006 128.237C132.405 126.886 130.754 125.636 129.003 124.435C127.853 123.635 126.552 122.784 125.002 121.784C110.846 112.58 82.7341 113.08 81.7837 113.13H81.6837C73.9805 103.376 74.5307 71.2628 74.9809 64.56C72.7299 65.4604 70.529 66.6109 68.5282 68.0115C61.7253 72.8635 55.4227 78.2658 49.5703 84.2683C42.9175 90.9711 36.8149 98.2241 31.3627 105.977V106.027C18.9075 123.685 10.0538 143.643 5.35179 164.752C5.25175 165.152 -1.60112 195.265 1.75029 210.871Z" fill="url(#paint7_radial_915_606)"/>
<path d="M262.209 134.389C269.262 141.342 275.364 149.245 280.216 157.899C281.267 158.699 282.267 159.499 283.118 160.3C327.086 200.817 304.026 258.091 302.326 262.192C338.041 232.78 360.85 189.262 353.997 144.343C332.088 89.6203 294.923 67.6111 264.56 19.641C263.009 17.19 261.459 14.739 260.008 12.238C259.258 10.9374 258.557 9.58685 257.857 8.23628C256.607 5.78526 255.606 3.23419 254.956 0.583086C254.956 0.332982 254.756 0.132898 254.506 0.0828773C254.406 -0.0171645 254.306 -0.0171645 254.156 0.0328564C254.106 0.0328564 254.106 0.0828773 254.055 0.0828773C254.005 0.0828773 253.955 0.132898 253.905 0.182919C246.452 3.7344 201.984 74.1138 262.209 134.389Z" fill="url(#paint8_radial_915_606)"/>
<path d="M283.118 160.25C282.168 159.4 281.217 158.599 280.217 157.849L279.017 156.949C265.361 147.495 248.704 143.443 232.247 145.594C301.976 180.458 283.268 300.509 186.628 296.007C178.024 295.656 169.521 294.006 161.417 291.155C159.517 290.454 157.616 289.654 155.715 288.804C154.615 288.303 153.514 287.803 152.464 287.253L152.614 287.353C166.069 296.557 232.647 319.016 302.226 262.343L302.326 262.092C304.077 258.041 327.087 200.767 283.118 160.25Z" fill="url(#paint9_radial_915_606)"/>
<path d="M106.795 223.827C106.795 223.827 115.749 190.463 170.872 190.463C176.824 190.463 193.881 173.806 194.181 169.004C170.471 177.607 144.36 176.557 121.401 166.153C98.7414 154.648 71.7801 155.748 50.1211 169.004C58.3745 186.861 76.3821 198.166 96.0403 197.916C92.4388 229.629 109.196 266.544 149.763 285.953C150.663 286.403 151.513 286.853 152.464 287.253C128.804 275.048 109.246 251.888 106.795 223.827Z" fill="url(#paint10_radial_915_606)"/>
<path d="M373.256 134.189C364.852 113.93 347.745 92.0213 334.34 85.1184C343.894 103.626 350.496 123.434 353.998 143.943L354.048 144.293C332.089 89.6203 294.923 67.6111 264.561 19.641C263.01 17.19 261.459 14.739 260.009 12.238C259.258 10.9374 258.558 9.58685 257.858 8.23628C256.607 5.78526 255.607 3.23419 254.957 0.583086C254.957 0.332982 254.756 0.132898 254.506 0.0828773C254.406 -0.0171645 254.306 -0.0171645 254.156 0.0328564C254.106 0.0328564 254.106 0.0828773 254.056 0.0828773C254.006 0.0828773 253.956 0.132898 253.906 0.182919L253.956 0.0328564C205.236 28.5448 188.729 81.3168 187.228 107.728C189.479 107.578 191.73 107.378 194.031 107.378C229.196 107.428 261.659 126.386 278.967 156.998C265.311 147.544 248.654 143.493 232.197 145.644C301.926 180.508 283.218 300.558 186.578 296.057C177.974 295.706 169.471 294.056 161.367 291.204C159.467 290.504 157.566 289.704 155.665 288.854C154.565 288.353 153.464 287.853 152.414 287.303L152.564 287.403C151.613 286.953 150.663 286.503 149.763 286.002C150.663 286.453 151.513 286.903 152.464 287.303C128.804 275.048 109.246 251.938 106.795 223.876C106.795 223.876 115.748 190.512 170.871 190.512C176.824 190.512 193.881 173.855 194.181 169.053C194.131 167.503 160.367 154.047 147.212 141.092C140.159 134.139 136.857 130.838 133.906 128.336C132.305 126.986 130.655 125.735 128.904 124.535C124.502 109.078 124.302 92.7216 128.354 77.1651C110.446 85.8187 94.5895 98.1238 81.6841 113.23H81.5841C73.8809 103.476 74.4311 71.3627 74.8813 64.6599C72.6304 65.5602 70.4294 66.7107 68.4286 68.1113C61.6258 72.9633 55.3231 78.3656 49.4707 84.3181C42.8179 91.0709 36.7654 98.3239 31.3631 106.077V106.127V106.027C18.9079 123.685 10.0542 143.643 5.35224 164.752L5.10213 166.052C4.75199 167.753 3.1013 176.407 2.85119 178.257C2.85119 178.407 2.85119 178.107 2.85119 178.257C1.35056 187.211 0.400167 196.215 0 205.269V206.269C0.100042 313.364 86.9864 400.05 194.031 400C288.321 399.9 368.904 332.022 384.911 239.083C385.261 236.582 385.511 234.131 385.811 231.58C389.813 198.566 385.461 165.102 373.256 134.189Z" fill="url(#paint11_linear_915_606)"/>
<defs>
<linearGradient id="paint0_linear_915_606" x1="347.55" y1="61.9472" x2="25.7202" y2="372.452" gradientUnits="userSpaceOnUse">
<stop offset="0.048" stop-color="#FFF44F"/>
<stop offset="0.111" stop-color="#FFE847"/>
<stop offset="0.225" stop-color="#FFC830"/>
<stop offset="0.368" stop-color="#FF980E"/>
<stop offset="0.401" stop-color="#FF8B16"/>
<stop offset="0.462" stop-color="#FF672A"/>
<stop offset="0.534" stop-color="#FF3647"/>
<stop offset="0.705" stop-color="#E31587"/>
</linearGradient>
<radialGradient id="paint1_radial_915_606" cx="0" cy="0" r="1" gradientUnits="userSpaceOnUse" gradientTransform="translate(332.704 44.396) scale(404.154 404.154)">
<stop offset="0.129" stop-color="#FFBD4F"/>
<stop offset="0.186" stop-color="#FFAC31"/>
<stop offset="0.247" stop-color="#FF9D17"/>
<stop offset="0.283" stop-color="#FF980E"/>
<stop offset="0.403" stop-color="#FF563B"/>
<stop offset="0.467" stop-color="#FF3750"/>
<stop offset="0.71" stop-color="#F5156C"/>
<stop offset="0.782" stop-color="#EB0878"/>
<stop offset="0.86" stop-color="#E50080"/>
</radialGradient>
<radialGradient id="paint2_radial_915_606" cx="0" cy="0" r="1" gradientUnits="userSpaceOnUse" gradientTransform="translate(185.023 209.626) scale(404.154 404.154)">
<stop offset="0.3" stop-color="#960E18"/>
<stop offset="0.351" stop-color="#B11927" stop-opacity="0.74"/>
<stop offset="0.435" stop-color="#DB293D" stop-opacity="0.343"/>
<stop offset="0.497" stop-color="#F5334B" stop-opacity="0.094"/>
<stop offset="0.53" stop-color="#FF3750" stop-opacity="0"/>
</radialGradient>
<radialGradient id="paint3_radial_915_606" cx="0" cy="0" r="1" gradientUnits="userSpaceOnUse" gradientTransform="translate(233.749 -47.3218) scale(292.781 292.781)">
<stop offset="0.132" stop-color="#FFF44F"/>
<stop offset="0.252" stop-color="#FFDC3E"/>
<stop offset="0.506" stop-color="#FF9D12"/>
<stop offset="0.526" stop-color="#FF980E"/>
</radialGradient>
<radialGradient id="paint4_radial_915_606" cx="0" cy="0" r="1" gradientUnits="userSpaceOnUse" gradientTransform="translate(140.318 315.192) scale(192.435 192.435)">
<stop offset="0.353" stop-color="#3A8EE6"/>
<stop offset="0.472" stop-color="#5C79F0"/>
<stop offset="0.669" stop-color="#9059FF"/>
<stop offset="1" stop-color="#C139E6"/>
</radialGradient>
<radialGradient id="paint5_radial_915_606" cx="0" cy="0" r="1" gradientTransform="matrix(99.1709 -23.9765 -28.0576 -116.107 207.106 176.504)" gradientUnits="userSpaceOnUse">
<stop offset="0.206" stop-color="#9059FF" stop-opacity="0"/>
<stop offset="0.278" stop-color="#8C4FF3" stop-opacity="0.064"/>
<stop offset="0.747" stop-color="#7716A8" stop-opacity="0.45"/>
<stop offset="0.975" stop-color="#6E008B" stop-opacity="0.6"/>
</radialGradient>
<radialGradient id="paint6_radial_915_606" cx="0" cy="0" r="1" gradientUnits="userSpaceOnUse" gradientTransform="translate(179.92 27.8608) scale(138.438 138.438)">
<stop stop-color="#FFE226"/>
<stop offset="0.121" stop-color="#FFDB27"/>
<stop offset="0.295" stop-color="#FFC82A"/>
<stop offset="0.502" stop-color="#FFA930"/>
<stop offset="0.732" stop-color="#FF7E37"/>
<stop offset="0.792" stop-color="#FF7139"/>
</radialGradient>
<radialGradient id="paint7_radial_915_606" cx="0" cy="0" r="1" gradientUnits="userSpaceOnUse" gradientTransform="translate(288.735 -59.949) scale(590.652 590.652)">
<stop offset="0.113" stop-color="#FFF44F"/>
<stop offset="0.456" stop-color="#FF980E"/>
<stop offset="0.622" stop-color="#FF5634"/>
<stop offset="0.716" stop-color="#FF3647"/>
<stop offset="0.904" stop-color="#E31587"/>
</radialGradient>
<radialGradient id="paint8_radial_915_606" cx="0" cy="0" r="1" gradientTransform="matrix(45.431 430.512 282.537 -29.8546 238.953 -27.105)" gradientUnits="userSpaceOnUse">
<stop stop-color="#FFF44F"/>
<stop offset="0.06" stop-color="#FFE847"/>
<stop offset="0.168" stop-color="#FFC830"/>
<stop offset="0.304" stop-color="#FF980E"/>
<stop offset="0.356" stop-color="#FF8B16"/>
<stop offset="0.455" stop-color="#FF672A"/>
<stop offset="0.57" stop-color="#FF3647"/>
<stop offset="0.737" stop-color="#E31587"/>
</radialGradient>
<radialGradient id="paint9_radial_915_606" cx="0" cy="0" r="1" gradientUnits="userSpaceOnUse" gradientTransform="translate(176.66 79.137) scale(368.754 368.754)">
<stop offset="0.137" stop-color="#FFF44F"/>
<stop offset="0.48" stop-color="#FF980E"/>
<stop offset="0.592" stop-color="#FF5634"/>
<stop offset="0.655" stop-color="#FF3647"/>
<stop offset="0.904" stop-color="#E31587"/>
</radialGradient>
<radialGradient id="paint10_radial_915_606" cx="0" cy="0" r="1" gradientUnits="userSpaceOnUse" gradientTransform="translate(274 100.719) scale(403.599 403.599)">
<stop offset="0.094" stop-color="#FFF44F"/>
<stop offset="0.231" stop-color="#FFE141"/>
<stop offset="0.509" stop-color="#FFAF1E"/>
<stop offset="0.626" stop-color="#FF980E"/>
</radialGradient>
<linearGradient id="paint11_linear_915_606" x1="343.687" y1="60.2915" x2="69.8427" y2="334.131" gradientUnits="userSpaceOnUse">
<stop offset="0.167" stop-color="#FFF44F" stop-opacity="0.8"/>
<stop offset="0.266" stop-color="#FFF44F" stop-opacity="0.634"/>
<stop offset="0.489" stop-color="#FFF44F" stop-opacity="0.217"/>
<stop offset="0.6" stop-color="#FFF44F" stop-opacity="0"/>
</linearGradient>
</defs>
</svg>
