<svg width="100" height="100" viewBox="0 0 100 100" fill="none" xmlns="http://www.w3.org/2000/svg">
<path fill-rule="evenodd" clip-rule="evenodd" d="M88.9695 58.7367C88.9695 60.9262 87.978 63.0942 86.0516 65.117C84.1251 67.1398 81.3015 68.9778 77.7419 70.526C74.1823 72.0741 69.9564 73.3022 65.3055 74.1401C60.6547 74.978 55.6699 75.4092 50.6359 75.4092C45.6018 75.4092 40.6171 74.978 35.9662 74.1401C31.3154 73.3022 27.0895 72.0741 23.5299 70.526C19.9703 68.9778 17.1467 67.1398 15.2202 65.117C13.2938 63.0942 12.3022 60.9262 12.3022 58.7367C12.3022 56.5472 13.2938 54.3792 15.2202 52.3564C17.1467 50.3336 19.9703 48.4957 23.5299 46.9475C27.0895 45.3993 31.3154 44.1712 35.9662 43.3333C40.6171 42.4955 45.6018 42.0642 50.6359 42.0642C55.6699 42.0642 60.6547 42.4955 65.3055 43.3333C69.9564 44.1712 74.1823 45.3993 77.7419 46.9475C81.3015 48.4957 84.1251 50.3336 86.0516 52.3564C87.978 54.3792 88.9695 56.5472 88.9695 58.7367Z" fill="url(#paint0_radial_1036_592)"/>
<path fill-rule="evenodd" clip-rule="evenodd" d="M23.8533 17.8412C23.8533 17.8412 29.8911 30.2921 44.0162 29.9408C73.6172 29.1982 78.8078 13.7568 79.5505 11.5289C80.2931 9.30098 81.4294 9.63845 81.6921 11.6975C91.3463 99.3278 14.6935 61.729 11.9712 46.8038C27.1951 42.348 23.4819 33.8078 23.4819 33.8078L23.8533 17.8412Z" fill="url(#paint1_radial_1036_592)" stroke="#2E3436" stroke-width="2.10047" stroke-miterlimit="10"/>
<path fill-rule="evenodd" clip-rule="evenodd" d="M35.1191 54.8058C49.274 57.6369 56.4824 55.0118 60.7012 51.7542C59.5872 50.3154 57.6842 48.7373 57.6842 48.7373C57.6842 48.7373 62.6273 50.1109 64.3679 52.3576C66.1035 54.5979 65.0124 55.9782 64.5581 58.8447C63.5469 56.327 61.6595 55.3829 61.404 54.3826C57.61 59.6273 48.1575 59.4094 35.1191 54.8058Z" fill="url(#paint2_linear_1036_592)"/>
<path opacity="0.185393" fill-rule="evenodd" clip-rule="evenodd" d="M79.7141 16.5303C78.5337 18.4772 76.7598 20.8009 74.0691 23.0286C68.5408 27.6056 59.2595 31.7715 44.0717 32.1525C35.1985 32.3732 29.4676 28.0899 25.9551 24.2758L25.6925 33.6623C25.9784 34.5419 26.5652 36.583 25.5612 39.3729C24.4809 42.3751 21.0357 45.4462 15.1245 47.7748C15.6503 48.8713 16.1653 49.9669 17.7501 51.5163C19.9093 53.6271 22.911 55.9022 26.4802 57.949C33.6185 62.0426 42.8672 65.2864 51.489 65.4319C60.1107 65.5775 67.9926 62.8388 73.4127 54.9296C78.4091 47.6384 81.1476 35.2944 79.7141 16.5303Z" stroke="url(#paint3_linear_1036_592)" stroke-width="2.10047" stroke-miterlimit="10"/>
<path fill-rule="evenodd" clip-rule="evenodd" d="M39.2631 36.5927C39.2634 37.7144 39.0427 38.8251 38.6136 39.8615C38.1846 40.8979 37.5555 41.8397 36.7625 42.6329C35.9694 43.4262 35.0279 44.0554 33.9916 44.4848C32.9553 44.9141 31.8446 45.1351 30.7229 45.1351C29.6012 45.1351 28.4905 44.9141 27.4542 44.4848C26.4179 44.0554 25.4763 43.4262 24.6832 42.6329C23.8902 41.8397 23.2612 40.8979 22.8321 39.8615C22.403 38.8251 22.1823 37.7144 22.1826 36.5927C22.1823 35.471 22.403 34.3602 22.8321 33.3238C23.2612 32.2874 23.8902 31.3457 24.6832 30.5524C25.4763 29.7592 26.4179 29.1299 27.4542 28.7006C28.4905 28.2713 29.6012 28.0503 30.7229 28.0503C31.8446 28.0503 32.9553 28.2713 33.9916 28.7006C35.0279 29.1299 35.9694 29.7592 36.7625 30.5524C37.5555 31.3457 38.1846 32.2874 38.6136 33.3238C39.0427 34.3602 39.2634 35.471 39.2631 36.5927Z" fill="url(#paint4_radial_1036_592)" stroke="#888A85" stroke-width="2.10047" stroke-miterlimit="10"/>
<path fill-rule="evenodd" clip-rule="evenodd" d="M22.2503 39.8104C24.2381 42.5657 25.3672 45.769 25.3892 48.7155C25.4112 51.6619 24.3243 54.1103 22.3676 55.5219C20.4109 56.9335 17.7447 57.1928 14.9555 56.2426C12.1664 55.2925 9.48273 53.2107 7.49494 50.4554C5.50716 47.7001 4.37808 44.4968 4.35609 41.5503C4.33411 38.6039 5.42101 36.1555 7.37769 34.7439C9.33438 33.3323 12.0006 33.073 14.7897 34.0232C17.5789 34.9734 20.2625 37.0551 22.2503 39.8104Z" fill="url(#paint5_radial_1036_592)" stroke="black" stroke-width="2.10047" stroke-miterlimit="10"/>
<path fill-rule="evenodd" clip-rule="evenodd" d="M36.8318 37.8578C36.832 38.3979 36.7258 38.9327 36.5192 39.4318C36.3126 39.9308 36.0098 40.3842 35.6279 40.7662C35.2461 41.1482 34.7927 41.4511 34.2937 41.6579C33.7948 41.8646 33.26 41.971 32.7199 41.971C32.1798 41.971 31.645 41.8646 31.146 41.6579C30.6471 41.4511 30.1937 41.1482 29.8118 40.7662C29.43 40.3842 29.1271 39.9308 28.9206 39.4318C28.714 38.9327 28.6078 38.3979 28.6079 37.8578C28.6078 37.3177 28.714 36.7829 28.9206 36.2839C29.1271 35.7848 29.43 35.3314 29.8118 34.9494C30.1937 34.5675 30.6471 34.2645 31.146 34.0577C31.645 33.851 32.1798 33.7446 32.7199 33.7446C33.26 33.7446 33.7948 33.851 34.2937 34.0577C34.7927 34.2645 35.2461 34.5675 35.6279 34.9494C36.0098 35.3314 36.3126 35.7848 36.5192 36.2839C36.7258 36.7829 36.832 37.3177 36.8318 37.8578Z" fill="#2E3436" stroke="black" stroke-width="2.10047" stroke-miterlimit="10"/>
<path opacity="0.280899" fill-rule="evenodd" clip-rule="evenodd" d="M8.12238 36.6205C6.78037 37.6256 6.07308 39.3263 6.13681 41.6341C6.20053 43.9419 7.11129 46.7674 8.98063 49.2633C10.85 51.7591 13.3053 53.4277 15.5021 54.138C17.6988 54.8482 19.5297 54.6477 20.8717 53.6426C22.2137 52.6374 22.9236 50.8556 22.8705 48.5371C22.8174 46.2186 21.9313 43.4508 20.066 40.9604C18.2008 38.4701 15.7939 36.8413 13.5839 36.1383C11.374 35.4353 9.46439 35.6153 8.12238 36.6205Z" stroke="url(#paint6_linear_1036_592)" stroke-width="2.10047" stroke-miterlimit="10"/>
<path fill-rule="evenodd" clip-rule="evenodd" d="M14.3155 40.4915C14.3156 41.0767 14.2196 41.6563 14.0331 42.197C13.8465 42.7377 13.573 43.229 13.2282 43.6429C12.8834 44.0568 12.474 44.3851 12.0235 44.6091C11.5729 44.8331 11.09 44.9483 10.6023 44.9483C10.1146 44.9483 9.6317 44.8331 9.18114 44.6091C8.73059 44.3851 8.32121 44.0568 7.9764 43.6429C7.63159 43.229 7.3581 42.7377 7.17155 42.197C6.985 41.6563 6.88904 41.0767 6.88916 40.4915C6.88904 39.9063 6.985 39.3267 7.17155 38.786C7.3581 38.2453 7.63159 37.754 7.9764 37.3401C8.32121 36.9262 8.73059 36.5979 9.18114 36.3739C9.6317 36.15 10.1146 36.0347 10.6023 36.0347C11.09 36.0347 11.5729 36.15 12.0235 36.3739C12.474 36.5979 12.8834 36.9262 13.2282 37.3401C13.573 37.754 13.8465 38.2453 14.0331 38.786C14.2196 39.3267 14.3156 39.9063 14.3155 40.4915Z" fill="white"/>
<path fill-rule="evenodd" clip-rule="evenodd" d="M33.985 35.96C33.985 36.715 33.6851 37.4391 33.1512 37.973C32.6173 38.5068 31.8933 38.8068 31.1382 38.8068C30.3832 38.8068 29.6592 38.5068 29.1253 37.973C28.5914 37.4391 28.2915 36.715 28.2915 35.96C28.2915 35.205 28.5914 34.4809 29.1253 33.9471C29.6592 33.4132 30.3832 33.1133 31.1382 33.1133C31.8933 33.1133 32.6173 33.4132 33.1512 33.9471C33.6851 34.4809 33.985 35.205 33.985 35.96Z" fill="white"/>
<path fill-rule="evenodd" clip-rule="evenodd" d="M58.3855 37.5209C58.3858 38.8377 58.1267 40.1417 57.6231 41.3583C57.1194 42.5749 56.381 43.6804 55.45 44.6117C54.519 45.5429 53.4137 46.2816 52.1971 46.7856C50.9806 47.2895 49.6768 47.5489 48.36 47.5489C47.0432 47.5489 45.7393 47.2895 44.5228 46.7856C43.3063 46.2816 42.201 45.5429 41.27 44.6117C40.339 43.6804 39.6006 42.5749 39.0969 41.3583C38.5932 40.1417 38.3341 38.8377 38.3345 37.5209C38.3341 36.2042 38.5932 34.9002 39.0969 33.6836C39.6006 32.4669 40.339 31.3614 41.27 30.4302C42.201 29.499 43.3063 28.7603 44.5228 28.2563C45.7393 27.7523 47.0432 27.4929 48.36 27.4929C49.6768 27.4929 50.9806 27.7523 52.1971 28.2563C53.4137 28.7603 54.519 29.499 55.45 30.4302C56.381 31.3614 57.1194 32.4669 57.6231 33.6836C58.1267 34.9002 58.3858 36.2042 58.3855 37.5209Z" fill="url(#paint7_radial_1036_592)" stroke="#888A85" stroke-width="2.10047" stroke-miterlimit="10"/>
<path fill-rule="evenodd" clip-rule="evenodd" d="M55.5316 39.0063C55.5318 39.6403 55.4071 40.2681 55.1646 40.8539C54.9221 41.4398 54.5666 41.9721 54.1183 42.4204C53.6701 42.8688 53.1379 43.2245 52.5521 43.4672C51.9664 43.7099 51.3386 43.8348 50.7045 43.8348C50.0705 43.8348 49.4427 43.7099 48.857 43.4672C48.2712 43.2245 47.739 42.8688 47.2908 42.4204C46.8425 41.9721 46.487 41.4398 46.2445 40.8539C46.002 40.2681 45.8773 39.6403 45.8774 39.0063C45.8773 38.3722 46.002 37.7444 46.2445 37.1586C46.487 36.5727 46.8425 36.0404 47.2908 35.5921C47.739 35.1437 48.2712 34.788 48.857 34.5453C49.4427 34.3026 50.0705 34.1777 50.7045 34.1777C51.3386 34.1777 51.9664 34.3026 52.5521 34.5453C53.1379 34.788 53.6701 35.1437 54.1183 35.5921C54.5666 36.0404 54.9221 36.5727 55.1646 37.1586C55.4071 37.7444 55.5318 38.3722 55.5316 39.0063Z" fill="#2E3436" stroke="black" stroke-width="2.10047" stroke-miterlimit="10"/>
<path fill-rule="evenodd" clip-rule="evenodd" d="M52.1895 36.7784C52.1895 37.6647 51.8374 38.5147 51.2107 39.1414C50.584 39.7681 49.734 40.1202 48.8477 40.1202C47.9614 40.1202 47.1114 39.7681 46.4847 39.1414C45.8579 38.5147 45.5059 37.6647 45.5059 36.7784C45.5059 35.892 45.8579 35.042 46.4847 34.4153C47.1114 33.7886 47.9614 33.4365 48.8477 33.4365C49.734 33.4365 50.584 33.7886 51.2107 34.4153C51.8374 35.042 52.1895 35.892 52.1895 36.7784Z" fill="white"/>
<path d="M78.9122 67.4618L80.8581 63.5867C73.6192 58.2907 60.2749 54.4372 60.2749 54.4372C57.9618 53.3598 57.2319 55.4377 58.8335 56.7885C58.8335 56.7885 70.2456 64.9698 78.9122 67.4618Z" fill="url(#paint8_linear_1036_592)" stroke="#673907" stroke-width="2.10047" stroke-linecap="round"/>
<path d="M88.1927 71.0339L89.2344 68.7278L81.1527 63.5504L80.5084 63.4954L80.2298 62.6035C79.0558 63.3387 77.3498 66.0698 77.8021 67.6052L78.675 67.2751L79.1478 67.7321L88.1927 71.0339Z" fill="url(#paint9_linear_1036_592)" stroke="#888A85" stroke-width="2.10047" stroke-linecap="round"/>
<path d="M82.9553 66.6599L88.321 68.9639" stroke="white" stroke-width="2.10048" stroke-linecap="round" stroke-linejoin="round"/>
<path d="M99.938 80.8266C97.4184 72.2741 96.5248 65.4834 89.9404 66.0876C84.6343 66.5746 84.2628 74.1774 89.7459 76.2753C95.0278 78.2963 99.938 80.8266 99.938 80.8266Z" fill="url(#paint10_radial_1036_592)"/>
<path opacity="0.527778" d="M90.3351 66.7804C90.6134 66.6983 90.9051 66.6719 91.1936 66.7026C91.4821 66.7332 91.7617 66.8205 92.0165 66.9593C92.2713 67.098 92.4962 67.2856 92.6785 67.5114C92.8607 67.7371 92.9967 67.9965 93.0787 68.2748C93.1607 68.5531 93.1871 68.8448 93.1563 69.1333C93.1255 69.4218 93.0382 69.7014 92.8994 69.9561C92.7605 70.2109 92.5728 70.4357 92.3471 70.6179C92.1213 70.8001 91.8618 70.9361 91.5835 71.018C91.3052 71.1 91.0135 71.1265 90.725 71.0958C90.4365 71.0651 90.1569 70.9779 89.9021 70.8391C89.6474 70.7003 89.4224 70.5127 89.2402 70.287C89.0579 70.0612 88.9219 69.8018 88.8399 69.5235C88.7579 69.2452 88.7316 68.9535 88.7624 68.665C88.7931 68.3765 88.8804 68.097 89.0193 67.8422C89.1581 67.5875 89.3458 67.3626 89.5716 67.1804C89.7974 66.9982 90.0568 66.8623 90.3351 66.7804Z" fill="white"/>
<path d="M80.7039 63.6374C80.8917 63.582 81.0885 63.5641 81.2832 63.5848C81.4779 63.6056 81.6665 63.6644 81.8384 63.7581C82.0104 63.8517 82.1621 63.9783 82.2851 64.1306C82.4081 64.2829 82.4999 64.4579 82.5552 64.6457C82.6105 64.8335 82.6283 65.0303 82.6075 65.225C82.5867 65.4197 82.5278 65.6083 82.4342 65.7802C82.3405 65.9521 82.2138 66.1038 82.0615 66.2268C81.9091 66.3497 81.7341 66.4414 81.5463 66.4967C81.3585 66.552 81.1617 66.5699 80.967 66.5492C80.7724 66.5285 80.5837 66.4696 80.4118 66.376C80.2399 66.2823 80.0881 66.1557 79.9651 66.0034C79.8421 65.8511 79.7504 65.6761 79.695 65.4883C79.6397 65.3005 79.6219 65.1037 79.6427 64.909C79.6635 64.7144 79.7224 64.5257 79.8161 64.3538C79.9098 64.182 80.0364 64.0302 80.1887 63.9073C80.3411 63.7843 80.5161 63.6926 80.7039 63.6374Z" fill="white"/>
<path opacity="0.427778" d="M96.7745 75.709C96.7745 75.709 95.9539 72.6387 94.1426 71.0408C93.5018 70.4755 94.3092 69.6427 94.9139 70.3741C96.2201 71.9538 96.7745 75.709 96.7745 75.709Z" fill="url(#paint11_linear_1036_592)"/>
<path fill-rule="evenodd" clip-rule="evenodd" d="M50.3794 58.3147C53.5246 58.6152 56.365 57.7429 57.546 57.3189C57.7523 56.1524 58.673 53.9135 61.8437 53.7661L60.7298 51.8167C60.7298 51.8167 56.5989 54.6479 52.1896 55.4834L50.3794 58.3147Z" fill="url(#paint12_linear_1036_592)"/>
<defs>
<radialGradient id="paint0_radial_1036_592" cx="0" cy="0" r="1" gradientUnits="userSpaceOnUse" gradientTransform="translate(50.6359 58.7368) scale(38.3336 16.6725)">
<stop/>
<stop offset="1" stop-opacity="0"/>
</radialGradient>
<radialGradient id="paint1_radial_1036_592" cx="0" cy="0" r="1" gradientUnits="userSpaceOnUse" gradientTransform="translate(36.841 38.4934) scale(71.6021 52.3735)">
<stop stop-color="#857C63"/>
<stop offset="1" stop-color="#221F19"/>
</radialGradient>
<linearGradient id="paint2_linear_1036_592" x1="61.9544" y1="51.3679" x2="38.5615" y2="56.0093" gradientUnits="userSpaceOnUse">
<stop/>
<stop offset="1" stop-opacity="0"/>
</linearGradient>
<linearGradient id="paint3_linear_1036_592" x1="33.5037" y1="31.7943" x2="85.0825" y2="90.345" gradientUnits="userSpaceOnUse">
<stop stop-color="white"/>
<stop offset="1" stop-color="white" stop-opacity="0"/>
</linearGradient>
<radialGradient id="paint4_radial_1036_592" cx="0" cy="0" r="1" gradientUnits="userSpaceOnUse" gradientTransform="translate(30.7229 30.5829) scale(12.4398 12.4398)">
<stop stop-color="white"/>
<stop offset="1" stop-color="#B9B9B0"/>
</radialGradient>
<radialGradient id="paint5_radial_1036_592" cx="0" cy="0" r="1" gradientUnits="userSpaceOnUse" gradientTransform="translate(11.4593 40.6694) rotate(-30) scale(9.34465 10.9067)">
<stop stop-color="#5B676B"/>
<stop offset="1" stop-color="#141718"/>
</radialGradient>
<linearGradient id="paint6_linear_1036_592" x1="9.9966" y1="38.3821" x2="19.7927" y2="52.5842" gradientUnits="userSpaceOnUse">
<stop stop-color="white"/>
<stop offset="1" stop-color="white" stop-opacity="0"/>
</linearGradient>
<radialGradient id="paint7_radial_1036_592" cx="0" cy="0" r="1" gradientUnits="userSpaceOnUse" gradientTransform="translate(48.36 30.4659) scale(14.6032 14.6032)">
<stop stop-color="white"/>
<stop offset="1" stop-color="#B9B9B0"/>
</radialGradient>
<linearGradient id="paint8_linear_1036_592" x1="74.2331" y1="58.9822" x2="69.8697" y2="68.512" gradientUnits="userSpaceOnUse">
<stop stop-color="#6E3D09"/>
<stop offset="0.242424" stop-color="#EA8113"/>
<stop offset="0.621212" stop-color="#5C3307"/>
<stop offset="1" stop-color="#E07C12"/>
</linearGradient>
<linearGradient id="paint9_linear_1036_592" x1="83.5839" y1="69.3324" x2="85.5027" y2="65.4612" gradientUnits="userSpaceOnUse">
<stop stop-color="#BDBDBD"/>
<stop offset="0.333333" stop-color="#E2E2E2"/>
<stop offset="0.666667" stop-color="#A3A3A3"/>
<stop offset="1" stop-color="#DDDDDD"/>
</linearGradient>
<radialGradient id="paint10_radial_1036_592" cx="0" cy="0" r="1" gradientUnits="userSpaceOnUse" gradientTransform="translate(88.3688 71.5816) rotate(-106.415) scale(10.1758 9.91661)">
<stop stop-color="#696969"/>
<stop offset="1"/>
</radialGradient>
<linearGradient id="paint11_linear_1036_592" x1="94.3928" y1="69.5497" x2="96.8504" y2="74.1043" gradientUnits="userSpaceOnUse">
<stop stop-color="white"/>
<stop offset="1" stop-color="white" stop-opacity="0"/>
</linearGradient>
<linearGradient id="paint12_linear_1036_592" x1="57.0166" y1="55.8083" x2="53.1643" y2="56.7366" gradientUnits="userSpaceOnUse">
<stop/>
<stop offset="1" stop-opacity="0"/>
</linearGradient>
</defs>
</svg>
