<svg width="100" height="100" viewBox="0 0 100 100" fill="none" xmlns="http://www.w3.org/2000/svg">
<g clip-path="url(#clip0_1036_616)">
<g opacity="0.783251">
<g filter="url(#filter0_f_1036_616)">
<path d="M42.3138 9.33576L10.3214 42.1047C-1.79226 54.2184 18.1642 53.2089 25.3858 57.7904C28.7248 59.9646 14.6699 62.7601 17.543 65.6332C20.3384 68.5063 34.3934 71.1464 37.1888 73.9419C39.9843 76.815 31.5203 79.8434 34.3157 82.7165C37.0335 85.5896 43.5563 82.8718 44.7211 89.3946C45.5752 94.209 56.6794 91.8018 61.6491 87.6862C64.7552 85.0461 56.2911 85.0461 59.0866 82.173C66.0752 75.1067 72.2874 78.9892 74.8499 72.4665C76.2476 68.9722 64.2893 66.4873 67.473 64.2354C75.0828 58.8775 103.037 56.1597 90.1472 43.2695L56.99 9.33576C52.8745 5.45318 46.1188 5.45318 42.3138 9.33576ZM79.0431 72.4665C79.0431 74.0972 91.7003 75.029 91.0014 72.0783C89.9919 67.1086 80.4408 67.4968 79.0431 72.4665ZM25.0752 81.0858C27.9483 83.5707 32.2968 80.5423 33.6945 77.048C30.8991 73.3983 20.5714 77.2809 25.0752 81.0858ZM77.49 75.8832C73.9181 79.1446 78.1112 82.5612 81.6056 80.3093C82.5374 79.6881 81.5279 76.6597 77.49 75.8832Z" fill="black"/>
</g>
<g opacity="0.576355" filter="url(#filter1_f_1036_616)">
<path d="M42.3138 10.0941L10.3214 42.863C-1.79226 54.9767 18.1642 53.9672 25.3858 58.5487C28.7248 60.7229 14.6699 63.5184 17.543 66.3915C20.3384 69.2646 34.3934 71.9047 37.1888 74.7002C39.9843 77.5733 31.5203 80.6017 34.3157 83.4748C37.0335 86.3479 43.5563 83.6301 44.7211 90.1529C45.5752 94.9673 56.6794 92.5601 61.6491 88.4445C64.7552 85.8044 56.2911 85.8044 59.0866 82.9313C66.0752 75.865 72.2874 79.7476 74.8499 73.2248C76.2476 69.7305 64.2893 67.2456 67.473 64.9938C75.0828 59.6358 103.037 56.918 90.1472 44.0278L56.99 10.0941C52.8745 6.21148 46.1188 6.21148 42.3138 10.0941ZM79.0431 73.2248C79.0431 74.8555 91.7003 75.7873 91.0014 72.8366C89.9919 67.8669 80.4408 68.2551 79.0431 73.2248ZM25.0752 81.8442C27.9483 84.329 32.2968 81.3006 33.6945 77.8063C30.8991 74.1566 20.5714 78.0392 25.0752 81.8442ZM77.49 76.6415C73.9181 79.9029 78.1112 83.3195 81.6056 81.0676C82.5374 80.4464 81.5279 77.418 77.49 76.6415Z" fill="black"/>
</g>
</g>
<path d="M42.3138 8.57746L10.3214 41.3464C-1.79226 53.4601 18.1642 52.4506 25.3858 57.0321C28.7248 59.2063 14.6699 62.0018 17.543 64.8749C20.3384 67.748 34.3934 70.3881 37.1888 73.1836C39.9843 76.0567 31.5203 79.0851 34.3157 81.9582C37.0335 84.8313 43.5563 82.1135 44.7211 88.6363C45.5752 93.4507 56.6794 91.0435 61.6491 86.9279C64.7552 84.2878 56.2911 84.2878 59.0866 81.4147C66.0752 74.3484 72.2874 78.2309 74.8499 71.7082C76.2476 68.2139 64.2893 65.729 67.473 63.4771C75.0828 58.1192 103.037 55.4014 90.1472 42.5112L56.99 8.57746C52.8745 4.69488 46.1188 4.69488 42.3138 8.57746ZM79.0431 71.7082C79.0431 73.3389 91.7003 74.2707 91.0014 71.32C89.9919 66.3503 80.4408 66.7385 79.0431 71.7082ZM25.0752 80.3275C27.9483 82.8124 32.2968 79.784 33.6945 76.2897C30.8991 72.64 20.5714 76.5226 25.0752 80.3275ZM77.49 75.1249C73.9181 78.3862 78.1112 81.8029 81.6056 79.551C82.5374 78.9298 81.5279 75.9014 77.49 75.1249Z" fill="black"/>
<path opacity="0.505263" d="M13.1673 43.163C4.46885 51.7832 19.75 49.3539 31.5047 53.9774L55.7978 11.2686C52.1146 7.50707 47.4127 7.82053 44.043 11.2686L13.1673 43.163Z" fill="url(#paint0_linear_1036_616)"/>
<path d="M55.0485 10.9071L67.7057 23.7972C68.8705 24.962 68.8705 27.3692 68.1716 28.0681L61.8818 22.9431L60.6394 30.4753L55.4367 27.6798L46.9727 33.0378L44.1772 21.7783L39.6735 31.5624L28.414 31.4847C26.2397 31.4847 26.5503 29.2328 28.8022 26.9809C33.2284 22.0889 41.8477 13.7802 44.5655 10.9071C47.361 8.03395 52.253 8.1116 55.0485 10.9071Z" fill="url(#paint1_linear_1036_616)"/>
<path opacity="0.216749" fill-rule="evenodd" clip-rule="evenodd" d="M37.6765 71.8008C37.6765 71.8008 39.0504 73.8986 38.9103 74.8854C38.6355 76.822 34.4646 77.7884 35.3888 79.5123C36.3018 81.2155 39.5926 80.2501 42.3548 82.0314C45.1053 83.805 44.3658 87.4198 46.3648 88.3291C50.2634 90.1026 60.5026 85.2702 59.9885 85.373C59.4744 85.4759 49.8832 87.4687 47.724 85.7208C45.2621 83.7278 44.5563 82.3358 42.7404 81.1574C41.0387 80.0531 38.6483 79.6026 38.0919 78.6985C37.5355 77.7944 39.2062 76.6278 39.3216 74.8854C39.391 73.8389 37.6765 71.8008 37.6765 71.8008Z" fill="url(#paint2_radial_1036_616)"/>
<g opacity="0.275862" filter="url(#filter2_f_1036_616)">
<path fill-rule="evenodd" clip-rule="evenodd" d="M37.6765 71.8008C37.6765 71.8008 39.0504 73.8986 38.9103 74.8854C38.6355 76.822 34.4646 77.7884 35.3888 79.5123C36.3018 81.2155 39.5926 80.2501 42.3548 82.0314C45.1053 83.805 44.3658 87.4198 46.3648 88.3291C50.2634 90.1026 60.5026 85.2702 59.9885 85.373C42.9863 85.4378 46.1592 81.0568 39.6044 78.1756C38.6572 77.7593 39.2062 76.6278 39.3216 74.8854C39.391 73.8389 37.6765 71.8008 37.6765 71.8008Z" fill="url(#paint3_radial_1036_616)"/>
</g>
<path opacity="0.453202" fill-rule="evenodd" clip-rule="evenodd" d="M66.5692 62.8554C81.8292 57.2395 86.7316 56.468 91.7601 51.4424C85.9361 56.3587 73.6233 58.9959 63.5874 63.3695L66.5692 62.8554Z" fill="url(#paint4_radial_1036_616)"/>
<g opacity="0.512315" filter="url(#filter3_f_1036_616)">
<path fill-rule="evenodd" clip-rule="evenodd" d="M66.5692 62.1357C91.6999 53.2296 87.4514 53.2806 91.7601 50.7227C83.7699 53.7812 68.8376 54.1074 63.5874 62.6498L66.5692 62.1357Z" fill="url(#paint5_radial_1036_616)"/>
</g>
<path opacity="0.285714" d="M88.5213 69.2562C88.5213 69.522 88.1773 69.777 87.5651 69.965C86.9529 70.153 86.1225 70.2587 85.2567 70.2587C84.3909 70.2587 83.5606 70.153 82.9484 69.965C82.3361 69.777 81.9922 69.522 81.9922 69.2562C81.9922 68.9903 82.3361 68.7353 82.9484 68.5473C83.5606 68.3593 84.3909 68.2537 85.2567 68.2537C86.1225 68.2537 86.9529 68.3593 87.5651 68.5473C88.1773 68.7353 88.5213 68.9903 88.5213 69.2562Z" fill="url(#paint6_linear_1036_616)"/>
<g opacity="0.620689" filter="url(#filter4_f_1036_616)">
<path d="M89.652 70.4129C89.652 70.9855 89.1889 71.5348 88.3645 71.9397C87.5402 72.3446 86.4222 72.5721 85.2564 72.5721C84.0906 72.5721 82.9726 72.3446 82.1483 71.9397C81.3239 71.5348 80.8608 70.9855 80.8608 70.4129C80.8608 69.8402 81.3239 69.291 82.1483 68.8861C82.9726 68.4812 84.0906 68.2537 85.2564 68.2537C86.4222 68.2537 87.5402 68.4812 88.3645 68.8861C89.1889 69.291 89.652 69.8402 89.652 70.4129Z" fill="url(#paint7_linear_1036_616)"/>
</g>
<g filter="url(#filter5_f_1036_616)">
<path fill-rule="evenodd" clip-rule="evenodd" d="M79.2671 71.6129C80.8174 73.0459 89.4487 73.7813 90.8601 71.2017C88.0894 73.1692 81.9284 72.4777 79.2671 71.6129Z" fill="url(#paint8_radial_1036_616)"/>
</g>
<path opacity="0.285714" d="M79.298 76.3958C79.3735 76.5443 79.4215 76.7049 79.4393 76.8685C79.4571 77.032 79.4443 77.1953 79.4018 77.3491C79.3592 77.5028 79.2876 77.6439 79.1912 77.7643C79.0947 77.8847 78.9752 77.9821 78.8396 78.0509C78.7039 78.1197 78.5548 78.1585 78.4006 78.1651C78.2465 78.1718 78.0903 78.1461 77.9412 78.0896C77.792 78.0331 77.6527 77.9469 77.5313 77.8359C77.4099 77.7248 77.3087 77.5912 77.2335 77.4425C77.158 77.294 77.11 77.1334 77.0922 76.9698C77.0744 76.8063 77.0872 76.6429 77.1297 76.4892C77.1723 76.3355 77.2439 76.1944 77.3404 76.074C77.4368 75.9536 77.5563 75.8562 77.6919 75.7874C77.8276 75.7186 77.9767 75.6798 78.1309 75.6732C78.2851 75.6665 78.4412 75.6922 78.5903 75.7487C78.7395 75.8052 78.8788 75.8914 79.0002 76.0024C79.1216 76.1135 79.2228 76.2471 79.298 76.3958Z" fill="url(#paint9_linear_1036_616)"/>
<g opacity="0.620689" filter="url(#filter6_f_1036_616)">
<path d="M79.9099 76.6728C80.0227 76.8949 80.0953 77.1346 80.1237 77.3782C80.1521 77.6218 80.1358 77.8646 80.0755 78.0927C80.0152 78.3207 79.9123 78.5296 79.7725 78.7074C79.6328 78.8852 79.459 79.0283 79.261 79.1287C79.0631 79.229 78.8449 79.2846 78.6189 79.2923C78.3929 79.3 78.1635 79.2596 77.9439 79.1734C77.7243 79.0873 77.5188 78.957 77.3391 78.7901C77.1593 78.6232 77.0089 78.4229 76.8964 78.2007C76.7837 77.9786 76.711 77.739 76.6826 77.4953C76.6542 77.2517 76.6706 77.0089 76.7308 76.7808C76.7911 76.5528 76.894 76.3439 77.0338 76.1661C77.1736 75.9884 77.3474 75.8452 77.5453 75.7448C77.7433 75.6445 77.9615 75.5889 78.1875 75.5812C78.4135 75.5735 78.6428 75.6139 78.8624 75.7001C79.082 75.7863 79.2875 75.9165 79.4673 76.0834C79.647 76.2503 79.7974 76.4506 79.9099 76.6728Z" fill="url(#paint10_linear_1036_616)"/>
</g>
<g filter="url(#filter7_f_1036_616)">
<path fill-rule="evenodd" clip-rule="evenodd" d="M77.1504 79.2925C78.3963 80.2675 83.0855 80.3924 81.3065 77.5586C81.7705 79.7781 78.5677 79.5434 77.1504 79.2925Z" fill="url(#paint11_radial_1036_616)"/>
</g>
<path fill-rule="evenodd" clip-rule="evenodd" d="M19.2715 64.6034C19.2715 64.3482 35.2482 69.4724 37.9847 72.2121C35.7345 70.0165 24.3468 64.967 22.6131 64.9119C20.8795 64.8568 19.4771 64.7062 19.2715 64.6034Z" fill="url(#paint12_radial_1036_616)"/>
<path opacity="0.285714" d="M31.2739 75.5799C31.336 75.7649 31.0933 76.0088 30.5991 76.2578C30.105 76.5068 29.3998 76.7405 28.6387 76.9076C27.8776 77.0747 27.1231 77.1615 26.541 77.1488C25.9588 77.1361 25.5969 77.025 25.5347 76.84C25.4725 76.655 25.7152 76.4111 26.2094 76.1621C26.7036 75.9131 27.4088 75.6794 28.1699 75.5123C28.9309 75.3452 29.6855 75.2584 30.2676 75.2711C30.8497 75.2838 31.2117 75.3949 31.2739 75.5799Z" fill="url(#paint13_linear_1036_616)"/>
<g opacity="0.620689" filter="url(#filter8_f_1036_616)">
<path d="M32.5386 76.1666C32.6725 76.5651 32.3938 77.0367 31.7639 77.4776C31.134 77.9185 30.2044 78.2926 29.1797 78.5176C28.155 78.7426 27.119 78.8001 26.2997 78.6773C25.4805 78.5546 24.945 78.2618 24.8111 77.8633C24.6771 77.4647 24.9558 76.9931 25.5857 76.5522C26.2156 76.1114 27.1452 75.7373 28.1699 75.5123C29.1946 75.2873 30.2306 75.2298 31.0499 75.3525C31.8692 75.4752 32.4047 75.7681 32.5386 76.1666Z" fill="url(#paint14_linear_1036_616)"/>
</g>
<g opacity="0.615764" filter="url(#filter9_f_1036_616)">
<path fill-rule="evenodd" clip-rule="evenodd" d="M24.3872 78.1758C24.3872 78.1758 25.2523 80.4998 27.626 80.6178C30.0275 80.737 32.7684 77.7359 32.9984 76.6592C32.5871 77.5846 30.2879 80.3744 27.3176 80.335C25.6314 80.3126 24.3872 78.1758 24.3872 78.1758Z" fill="url(#paint15_radial_1036_616)"/>
</g>
<g filter="url(#filter10_f_1036_616)">
<path d="M49.5403 6.80615C47.1345 6.80615 44.7767 7.67744 43.1098 9.37836L11.127 42.1376C8.20296 45.0617 7.50051 46.9759 7.68123 48.0586C7.7716 48.5999 8.03734 49.0704 8.60335 49.5631C9.16935 50.0557 10.0255 50.5387 11.0542 50.9705C13.1116 51.8342 15.8826 52.5298 18.601 53.2758C21.3194 54.0218 23.9821 54.8091 26.0022 56.0907C26.3101 56.2912 26.5994 56.5383 26.8029 56.8914C27.0065 57.2446 27.078 57.7115 26.9971 58.1047C26.8352 58.8912 26.351 59.306 25.8566 59.682C24.8677 60.4341 23.509 61.059 22.1438 61.7204C20.7787 62.3818 19.4067 63.0585 18.7223 63.6132C18.3801 63.8905 18.2563 64.1397 18.2613 64.1227C18.2662 64.1058 18.1705 63.9107 18.3341 64.0742C18.7625 64.5146 20.0999 65.2686 21.8041 65.9427C23.5083 66.6168 25.594 67.2982 27.7008 67.9811C29.8076 68.6639 31.9386 69.3399 33.7431 70.0437C35.5475 70.7474 37.0182 71.4018 37.9896 72.3732C38.4731 72.8702 38.8148 73.4883 38.8875 74.1204C38.9602 74.7525 38.789 75.3458 38.5477 75.8433C38.0652 76.8383 37.2895 77.6038 36.5822 78.3427C35.8748 79.0816 35.234 79.7873 35.0049 80.2597C34.8903 80.4959 34.8726 80.6499 34.8836 80.745C34.8945 80.8402 34.9109 80.9362 35.1262 81.1576C35.1344 81.1655 35.1425 81.1736 35.1505 81.1818C36.0773 82.1616 38.0912 82.2994 40.3677 82.8319C41.506 83.0982 42.6964 83.5012 43.7164 84.385C44.7365 85.2687 45.502 86.614 45.8276 88.4374C45.9646 89.2097 46.3733 89.5857 47.3564 89.8934C48.3394 90.201 49.8368 90.2549 51.4816 90.0147C54.7711 89.5344 58.6722 87.9217 60.9211 86.0593C61.0609 85.9405 61.022 85.9719 61.0667 85.9137C60.9154 85.8055 60.5607 85.5748 59.9747 85.2828C59.2825 84.9379 58.4646 84.6153 57.8393 83.8268C57.5267 83.4326 57.3114 82.8101 57.4025 82.201C57.4937 81.5919 57.8272 81.0851 58.2761 80.6237C61.9613 76.8976 65.5924 76.008 68.3223 75.2852C69.6872 74.9237 70.8299 74.5931 71.6953 74.0476C72.5607 73.5021 73.2367 72.7557 73.8064 71.3055C73.8692 71.1485 73.8674 71.103 73.7822 70.9173C73.6969 70.7315 73.4681 70.4345 73.1027 70.1165C72.3719 69.4805 71.1533 68.797 69.9481 68.1267C68.7429 67.4563 67.5716 66.8312 66.7207 66.0398C66.2953 65.644 65.8495 65.1455 65.7986 64.3897C65.7478 63.6338 66.2432 62.9518 66.8178 62.5454C68.9499 61.0443 72.1729 59.9015 75.6749 58.6871C79.177 57.4728 82.944 56.2162 86.0123 54.7803C89.0806 53.3444 91.3371 51.6908 92.0546 50.0241C92.4133 49.1908 92.479 48.3479 92.1031 47.2578C91.7272 46.1676 90.8688 44.8344 89.3368 43.3024L56.2135 9.40263C56.2052 9.39478 56.1976 9.38617 56.1892 9.37836C54.3584 7.66402 51.9352 6.80615 49.5403 6.80615ZM85.2115 68.9274C83.1652 69.0013 81.2827 69.938 80.4796 71.4026C80.7078 71.4884 80.9132 71.585 81.2804 71.6695C82.3486 71.9152 83.8394 72.0739 85.3086 72.1063C86.7778 72.1387 88.247 72.0151 89.1426 71.7666C89.5347 71.6578 89.7424 71.5478 89.8463 71.4754C89.6477 70.6281 89.1748 70.0294 88.3661 69.5826C87.5285 69.1199 86.3808 68.8852 85.2115 68.9274ZM30.4671 75.9646C28.8443 75.8517 26.8047 76.4977 25.808 77.2992C25.3097 77.7 25.0989 78.0714 25.08 78.3184C25.0612 78.5654 25.14 78.8946 25.808 79.4589C25.8081 79.467 25.8081 79.4751 25.808 79.4832C26.8585 80.3917 28.0461 80.297 29.3994 79.5559C30.5339 78.9347 31.5404 77.7694 32.2143 76.5469C31.76 76.2539 31.2168 76.0168 30.4671 75.9646ZM77.8346 76.4499C77.4873 76.8915 77.2981 77.3025 77.2765 77.5904C77.2466 77.9878 77.3593 78.2949 77.6647 78.5854C78.2373 79.1297 79.4811 79.364 80.7465 78.6824C80.7215 78.5356 80.6741 78.3129 80.4796 78.0272C80.0914 77.4572 79.1839 76.843 77.8346 76.4499Z" stroke="url(#paint16_radial_1036_616)" stroke-width="0.485348"/>
</g>
<g opacity="0.325123" filter="url(#filter11_f_1036_616)">
<path fill-rule="evenodd" clip-rule="evenodd" d="M32.0041 58.1072C30.0738 58.6767 23.8169 61.0409 24.7049 62.8469C25.5556 64.577 40.1038 65.2741 42.3367 70.4305C43.3104 72.679 40.1024 74.3751 40.9148 76.6869C41.5403 78.4671 46.3795 82.9399 49.441 85.0545C51.8423 86.7132 54.9963 83.7189 53.712 81.237C51.666 77.2831 60.7051 72.4404 64.803 70.2409C67.1938 68.9576 59.8737 62.6573 59.8737 62.6573L32.0041 58.1072Z" fill="url(#paint17_linear_1036_616)"/>
</g>
<path fill-rule="evenodd" clip-rule="evenodd" d="M32.7178 59.8531C34.451 61.1259 37.8714 60.3582 39.9255 61.2832C44.856 63.5034 50.9171 65.9776 49.8017 61.5974L48.547 62.6395L48.5226 60.6535L45.6091 61.365C45.6091 61.365 43.3524 59.5536 42.3178 58.9563C42.1017 58.8315 40.9917 59.9602 40.9917 59.9602L40.7922 58.7614C39.3499 58.6079 37.9221 58.5402 36.6649 58.5503C33.6513 58.5745 31.6183 59.0455 32.7178 59.8531Z" fill="url(#paint18_linear_1036_616)"/>
<g opacity="0.477832" filter="url(#filter12_f_1036_616)">
<path fill-rule="evenodd" clip-rule="evenodd" d="M65.0873 63.8896C64.4201 66.3461 73.2881 69.6834 72.6235 71.3784C71.1603 75.1101 63.1532 72.5681 57.0298 80.3839C56.1527 81.5034 58.2621 85.5028 57.9778 85.0288C57.6934 84.5548 55.5264 81.2511 56.0819 79.6255C57.8239 74.5274 74.6664 72.6269 71.5808 70.1935C69.8063 68.7941 63.4264 64.9278 65.0873 63.8896Z" fill="url(#paint19_radial_1036_616)"/>
</g>
<path opacity="0.586207" d="M85.0414 68.9375C85.0414 69.0444 84.9391 69.1469 84.7568 69.2224C84.5746 69.298 84.3275 69.3404 84.0698 69.3404C83.8121 69.3404 83.5649 69.298 83.3827 69.2224C83.2005 69.1469 83.0981 69.0444 83.0981 68.9375C83.0981 68.8307 83.2005 68.7282 83.3827 68.6527C83.5649 68.5771 83.8121 68.5347 84.0698 68.5347C84.3275 68.5347 84.5746 68.5771 84.7568 68.6527C84.9391 68.7282 85.0414 68.8307 85.0414 68.9375Z" fill="white"/>
<path opacity="0.586207" d="M78.5482 76.3787C78.5482 76.4856 78.4833 76.588 78.3678 76.6636C78.2522 76.7391 78.0955 76.7816 77.9321 76.7816C77.7687 76.7816 77.6119 76.7391 77.4964 76.6636C77.3808 76.588 77.3159 76.4856 77.3159 76.3787C77.3159 76.2719 77.3808 76.1694 77.4964 76.0938C77.6119 76.0183 77.7687 75.9758 77.9321 75.9758C78.0955 75.9758 78.2522 76.0183 78.3678 76.0938C78.4833 76.1694 78.5482 76.2719 78.5482 76.3787Z" fill="white"/>
<path opacity="0.586207" d="M29.3971 76.0232C29.3971 76.1301 29.2822 76.2326 29.0778 76.3081C28.8733 76.3837 28.5961 76.4261 28.3069 76.4261C28.0178 76.4261 27.7405 76.3837 27.5361 76.3081C27.3316 76.2326 27.2168 76.1301 27.2168 76.0232C27.2168 75.9164 27.3316 75.8139 27.5361 75.7384C27.7405 75.6628 28.0178 75.6204 28.3069 75.6204C28.5961 75.6204 28.8733 75.6628 29.0778 75.7384C29.2822 75.8139 29.3971 75.9164 29.3971 76.0232Z" fill="white"/>
<path opacity="0.251232" d="M28.7808 58.2966C23.2264 61.732 14.5907 62.9823 24.0411 65.264C22.9154 62.7574 26.4783 63.0339 28.7808 58.2966Z" fill="url(#paint20_linear_1036_616)"/>
<g opacity="0.363158" filter="url(#filter13_f_1036_616)">
<path d="M48.4982 89.579C48.4982 89.579 57.0645 88.7721 59.0462 86.3005C60.2056 84.8544 54.4386 83.167 55.6836 81.7503C60.3664 76.4213 64.3026 76.6438 69.7322 74.4119C75.1618 72.18 73.1582 71.0869 71.402 70.1069C68.3942 68.4285 61.6999 66.6403 63.9144 62.6574C66.1428 58.6495 85.6577 53.0831 85.6577 53.0831C91.5714 51.0627 90.8293 47.4089 87.9327 44.362L70.4906 27.0146C70.4906 27.0146 71.3562 43.4667 67.8363 50.5237C63.4866 59.2445 40.3292 68.9751 50.0149 70.0513C53.4275 70.4305 55.0658 71.5948 56.461 74.2223C59.3337 79.6327 48.4982 89.579 48.4982 89.579Z" fill="url(#paint21_linear_1036_616)"/>
</g>
</g>
<defs>
<filter id="filter0_f_1036_616" x="4.90371" y="4.82266" width="90.1931" height="88.8378" filterUnits="userSpaceOnUse" color-interpolation-filters="sRGB">
<feFlood flood-opacity="0" result="BackgroundImageFix"/>
<feBlend mode="normal" in="SourceGraphic" in2="BackgroundImageFix" result="shape"/>
<feGaussianBlur stdDeviation="0.800584" result="effect1_foregroundBlur_1036_616"/>
</filter>
<filter id="filter1_f_1036_616" x="-0.433514" y="0.243732" width="100.868" height="99.5123" filterUnits="userSpaceOnUse" color-interpolation-filters="sRGB">
<feFlood flood-opacity="0" result="BackgroundImageFix"/>
<feBlend mode="normal" in="SourceGraphic" in2="BackgroundImageFix" result="shape"/>
<feGaussianBlur stdDeviation="3.4692" result="effect1_foregroundBlur_1036_616"/>
</filter>
<filter id="filter2_f_1036_616" x="33.1939" y="69.7393" width="28.8748" height="21.0428" filterUnits="userSpaceOnUse" color-interpolation-filters="sRGB">
<feFlood flood-opacity="0" result="BackgroundImageFix"/>
<feBlend mode="normal" in="SourceGraphic" in2="BackgroundImageFix" result="shape"/>
<feGaussianBlur stdDeviation="1.03072" result="effect1_foregroundBlur_1036_616"/>
</filter>
<filter id="filter3_f_1036_616" x="61.3558" y="48.491" width="32.6361" height="16.3905" filterUnits="userSpaceOnUse" color-interpolation-filters="sRGB">
<feFlood flood-opacity="0" result="BackgroundImageFix"/>
<feBlend mode="normal" in="SourceGraphic" in2="BackgroundImageFix" result="shape"/>
<feGaussianBlur stdDeviation="1.11582" result="effect1_foregroundBlur_1036_616"/>
</filter>
<filter id="filter4_f_1036_616" x="79.8475" y="67.2403" width="10.8177" height="6.34502" filterUnits="userSpaceOnUse" color-interpolation-filters="sRGB">
<feFlood flood-opacity="0" result="BackgroundImageFix"/>
<feBlend mode="normal" in="SourceGraphic" in2="BackgroundImageFix" result="shape"/>
<feGaussianBlur stdDeviation="0.506666" result="effect1_foregroundBlur_1036_616"/>
</filter>
<filter id="filter5_f_1036_616" x="78.4032" y="70.3377" width="13.3206" height="3.44071" filterUnits="userSpaceOnUse" color-interpolation-filters="sRGB">
<feFlood flood-opacity="0" result="BackgroundImageFix"/>
<feBlend mode="normal" in="SourceGraphic" in2="BackgroundImageFix" result="shape"/>
<feGaussianBlur stdDeviation="0.431956" result="effect1_foregroundBlur_1036_616"/>
</filter>
<filter id="filter6_f_1036_616" x="76.0026" y="74.914" width="4.8009" height="5.04553" filterUnits="userSpaceOnUse" color-interpolation-filters="sRGB">
<feFlood flood-opacity="0" result="BackgroundImageFix"/>
<feBlend mode="normal" in="SourceGraphic" in2="BackgroundImageFix" result="shape"/>
<feGaussianBlur stdDeviation="0.333159" result="effect1_foregroundBlur_1036_616"/>
</filter>
<filter id="filter7_f_1036_616" x="76.5823" y="76.9905" width="5.69033" height="3.4977" filterUnits="userSpaceOnUse" color-interpolation-filters="sRGB">
<feFlood flood-opacity="0" result="BackgroundImageFix"/>
<feBlend mode="normal" in="SourceGraphic" in2="BackgroundImageFix" result="shape"/>
<feGaussianBlur stdDeviation="0.284033" result="effect1_foregroundBlur_1036_616"/>
</filter>
<filter id="filter8_f_1036_616" x="23.9546" y="74.4656" width="9.44033" height="5.09853" filterUnits="userSpaceOnUse" color-interpolation-filters="sRGB">
<feFlood flood-opacity="0" result="BackgroundImageFix"/>
<feBlend mode="normal" in="SourceGraphic" in2="BackgroundImageFix" result="shape"/>
<feGaussianBlur stdDeviation="0.41184" result="effect1_foregroundBlur_1036_616"/>
</filter>
<filter id="filter9_f_1036_616" x="23.6875" y="75.9595" width="10.0108" height="5.36137" filterUnits="userSpaceOnUse" color-interpolation-filters="sRGB">
<feFlood flood-opacity="0" result="BackgroundImageFix"/>
<feBlend mode="normal" in="SourceGraphic" in2="BackgroundImageFix" result="shape"/>
<feGaussianBlur stdDeviation="0.349863" result="effect1_foregroundBlur_1036_616"/>
</filter>
<filter id="filter10_f_1036_616" x="6.76385" y="5.91522" width="86.483" height="85.1405" filterUnits="userSpaceOnUse" color-interpolation-filters="sRGB">
<feFlood flood-opacity="0" result="BackgroundImageFix"/>
<feBlend mode="normal" in="SourceGraphic" in2="BackgroundImageFix" result="shape"/>
<feGaussianBlur stdDeviation="0.324131" result="effect1_foregroundBlur_1036_616"/>
</filter>
<filter id="filter11_f_1036_616" x="21.0403" y="54.5284" width="47.8212" height="34.5831" filterUnits="userSpaceOnUse" color-interpolation-filters="sRGB">
<feFlood flood-opacity="0" result="BackgroundImageFix"/>
<feBlend mode="normal" in="SourceGraphic" in2="BackgroundImageFix" result="shape"/>
<feGaussianBlur stdDeviation="1.7894" result="effect1_foregroundBlur_1036_616"/>
</filter>
<filter id="filter12_f_1036_616" x="54.7866" y="62.6851" width="19.0771" height="23.5871" filterUnits="userSpaceOnUse" color-interpolation-filters="sRGB">
<feFlood flood-opacity="0" result="BackgroundImageFix"/>
<feBlend mode="normal" in="SourceGraphic" in2="BackgroundImageFix" result="shape"/>
<feGaussianBlur stdDeviation="0.602285" result="effect1_foregroundBlur_1036_616"/>
</filter>
<filter id="filter13_f_1036_616" x="44.9804" y="24.3261" width="47.8326" height="67.9415" filterUnits="userSpaceOnUse" color-interpolation-filters="sRGB">
<feFlood flood-opacity="0" result="BackgroundImageFix"/>
<feBlend mode="normal" in="SourceGraphic" in2="BackgroundImageFix" result="shape"/>
<feGaussianBlur stdDeviation="1.34425" result="effect1_foregroundBlur_1036_616"/>
</filter>
<linearGradient id="paint0_linear_1036_616" x1="25.8624" y1="26.0012" x2="45.4536" y2="45.5923" gradientUnits="userSpaceOnUse">
<stop stop-color="white"/>
<stop offset="1" stop-color="white" stop-opacity="0"/>
</linearGradient>
<linearGradient id="paint1_linear_1036_616" x1="46.8951" y1="14.4014" x2="70.1905" y2="37.6969" gradientUnits="userSpaceOnUse">
<stop stop-color="white"/>
<stop offset="1" stop-color="white" stop-opacity="0"/>
</linearGradient>
<radialGradient id="paint2_radial_1036_616" cx="0" cy="0" r="1" gradientUnits="userSpaceOnUse" gradientTransform="translate(35.2554 87.4622) scale(19.7591 13.226)">
<stop stop-color="white"/>
<stop offset="1" stop-color="white" stop-opacity="0"/>
</radialGradient>
<radialGradient id="paint3_radial_1036_616" cx="0" cy="0" r="1" gradientUnits="userSpaceOnUse" gradientTransform="translate(45.6736 87.9362) scale(25.211 16.8752)">
<stop stop-color="white"/>
<stop offset="1" stop-color="white" stop-opacity="0"/>
</radialGradient>
<radialGradient id="paint4_radial_1036_616" cx="0" cy="0" r="1" gradientUnits="userSpaceOnUse" gradientTransform="translate(77.6738 57.406) scale(14.0864 5.96357)">
<stop stop-color="white"/>
<stop offset="1" stop-color="white" stop-opacity="0"/>
</radialGradient>
<radialGradient id="paint5_radial_1036_616" cx="0" cy="0" r="1" gradientUnits="userSpaceOnUse" gradientTransform="translate(80.6555 59.0511) scale(14.0864 5.96357)">
<stop stop-color="white"/>
<stop offset="1" stop-color="white" stop-opacity="0"/>
</radialGradient>
<linearGradient id="paint6_linear_1036_616" x1="85.9508" y1="67.6624" x2="86.0022" y2="70.2587" gradientUnits="userSpaceOnUse">
<stop stop-color="white"/>
<stop offset="1" stop-color="white" stop-opacity="0"/>
</linearGradient>
<linearGradient id="paint7_linear_1036_616" x1="86.0533" y1="67.3646" x2="86.0533" y2="71.3066" gradientUnits="userSpaceOnUse">
<stop stop-color="white"/>
<stop offset="1" stop-color="white" stop-opacity="0"/>
</linearGradient>
<radialGradient id="paint8_radial_1036_616" cx="0" cy="0" r="1" gradientUnits="userSpaceOnUse" gradientTransform="translate(85.0636 72.0581) scale(5.79648 0.856404)">
<stop stop-color="white"/>
<stop offset="1" stop-color="white" stop-opacity="0"/>
</radialGradient>
<linearGradient id="paint9_linear_1036_616" x1="77.8127" y1="75.362" x2="79.0906" y2="77.62" gradientUnits="userSpaceOnUse">
<stop stop-color="white"/>
<stop offset="1" stop-color="white" stop-opacity="0"/>
</linearGradient>
<linearGradient id="paint10_linear_1036_616" x1="77.332" y1="74.5621" x2="79.1146" y2="78.078" gradientUnits="userSpaceOnUse">
<stop stop-color="white"/>
<stop offset="1" stop-color="white" stop-opacity="0"/>
</linearGradient>
<radialGradient id="paint11_radial_1036_616" cx="0" cy="0" r="1" gradientUnits="userSpaceOnUse" gradientTransform="translate(79.4585 79.4558) rotate(-26.8861) scale(2.50624 0.856404)">
<stop stop-color="white"/>
<stop offset="1" stop-color="white" stop-opacity="0"/>
</radialGradient>
<radialGradient id="paint12_radial_1036_616" cx="0" cy="0" r="1" gradientUnits="userSpaceOnUse" gradientTransform="translate(28.1654 67.1693) scale(9.35663 3.80894)">
<stop stop-color="white" stop-opacity="0.330049"/>
<stop offset="1" stop-color="white" stop-opacity="0"/>
</radialGradient>
<linearGradient id="paint13_linear_1036_616" x1="28.6417" y1="74.9669" x2="29.0787" y2="76.8147" gradientUnits="userSpaceOnUse">
<stop stop-color="white"/>
<stop offset="1" stop-color="white" stop-opacity="0"/>
</linearGradient>
<linearGradient id="paint14_linear_1036_616" x1="28.6625" y1="74.7397" x2="29.2795" y2="77.55" gradientUnits="userSpaceOnUse">
<stop stop-color="white"/>
<stop offset="1" stop-color="white" stop-opacity="0"/>
</linearGradient>
<radialGradient id="paint15_radial_1036_616" cx="0" cy="0" r="1" gradientUnits="userSpaceOnUse" gradientTransform="translate(28.41 80.4652) rotate(-15.4869) scale(5.29469 1.98102)">
<stop stop-color="white"/>
<stop offset="1" stop-color="white" stop-opacity="0"/>
</radialGradient>
<radialGradient id="paint16_radial_1036_616" cx="0" cy="0" r="1" gradientUnits="userSpaceOnUse" gradientTransform="translate(53.418 15.8761) scale(73.2607 72.1046)">
<stop stop-color="white"/>
<stop offset="1" stop-color="white" stop-opacity="0"/>
</radialGradient>
<linearGradient id="paint17_linear_1036_616" x1="32.0041" y1="71.8199" x2="53.9964" y2="77.6348" gradientUnits="userSpaceOnUse">
<stop stop-color="white"/>
<stop offset="1" stop-color="white" stop-opacity="0"/>
</linearGradient>
<linearGradient id="paint18_linear_1036_616" x1="43.6621" y1="58.4506" x2="41.1918" y2="64.1108" gradientUnits="userSpaceOnUse">
<stop stop-color="#EEEEEC"/>
<stop offset="1" stop-color="#EEEEEC" stop-opacity="0"/>
</linearGradient>
<radialGradient id="paint19_radial_1036_616" cx="0" cy="0" r="1" gradientUnits="userSpaceOnUse" gradientTransform="translate(64.51 74.2417) scale(11.5133 14.6316)">
<stop stop-color="white"/>
<stop offset="1" stop-color="white" stop-opacity="0"/>
</radialGradient>
<linearGradient id="paint20_linear_1036_616" x1="23.8515" y1="60.3821" x2="27.3115" y2="63.1312" gradientUnits="userSpaceOnUse">
<stop stop-color="white"/>
<stop offset="1" stop-color="white" stop-opacity="0"/>
</linearGradient>
<linearGradient id="paint21_linear_1036_616" x1="64.3528" y1="75.3598" x2="54.0723" y2="47.6798" gradientUnits="userSpaceOnUse">
<stop stop-color="#729FCF"/>
<stop offset="1" stop-color="#729FCF" stop-opacity="0"/>
</linearGradient>
<clipPath id="clip0_1036_616">
<rect width="100" height="100" fill="white"/>
</clipPath>
</defs>
</svg>
