<svg width="16" height="16" viewBox="0 0 16 16" fill="none" xmlns="http://www.w3.org/2000/svg">
<mask id="mask0_1025_595" style="mask-type:alpha" maskUnits="userSpaceOnUse" x="0" y="0" width="16" height="16">
<rect width="16" height="16" fill="#D9D9D9"/>
</mask>
<g mask="url(#mask0_1025_595)">
<path d="M11.1 8.66664L7.33333 4.89997L11.1 1.1333L14.8667 4.89997L11.1 8.66664ZM2 7.3333V1.99997H7.33333V7.3333H2ZM8.66667 14V8.66664H14V14H8.66667ZM2 14V8.66664H7.33333V14H2ZM3.33333 5.99997H6V3.3333H3.33333V5.99997ZM11.1167 6.79997L13 4.91663L11.1167 3.0333L9.23333 4.91663L11.1167 6.79997ZM10 12.6666H12.6667V9.99997H10V12.6666ZM3.33333 12.6666H6V9.99997H3.33333V12.6666Z" fill="black"/>
</g>
</svg>
