<svg width="100" height="100" viewBox="0 0 100 100" fill="none" xmlns="http://www.w3.org/2000/svg">
<path fill-rule="evenodd" clip-rule="evenodd" d="M50.001 52.0867C60.4755 52.0873 68.9676 60.579 68.9679 71.0535C68.9676 81.528 60.4754 90.0207 50.001 90.0213C39.526 90.0213 31.0334 81.5284 31.0331 71.0535C31.0334 60.5787 39.526 52.0867 50.001 52.0867ZM50.001 57.2703C43.6479 57.2703 38.2687 61.6472 36.6953 67.5262H43.7812C45.0038 65.3532 47.299 63.8865 50.001 63.8865C53.9986 63.8868 57.169 67.0569 57.169 71.0545C57.1685 75.0517 53.9983 78.2212 50.001 78.2215C47.1178 78.2215 44.6835 76.5613 43.54 74.1424H36.583C37.9996 80.2418 43.4905 84.8377 50.001 84.8377C57.574 84.8374 63.7848 78.6274 63.7852 71.0545C63.7852 63.4811 57.5743 57.2706 50.001 57.2703Z" fill="black"/>
<path fill-rule="evenodd" clip-rule="evenodd" d="M85.2883 42.3836C88.9422 42.3838 91.9045 45.3458 91.9045 48.9998V93.1082C91.9045 96.7622 88.9422 99.7251 85.2883 99.7254H14.7137C11.0596 99.7254 8.09649 96.7623 8.09649 93.1082V48.9998C8.09649 45.3457 11.0596 42.3836 14.7137 42.3836H85.2883ZM50.001 47.8973C37.2118 47.8973 26.8439 58.2644 26.8437 71.0535C26.8439 83.8426 37.2118 94.2107 50.001 94.2107C62.7897 94.2101 73.1581 83.8423 73.1583 71.0535C73.1581 58.2648 62.7897 47.8979 50.001 47.8973Z" fill="black"/>
<path fill-rule="evenodd" clip-rule="evenodd" d="M1.09353 1.60625C2.29821 0.6755 4.02978 0.89781 4.96073 2.10234L12.5164 11.8807C13.204 11.6386 13.9435 11.5066 14.7137 11.5066H85.2883C86.0575 11.5067 86.7958 11.6392 87.4826 11.8807L95.0393 2.10234C95.9701 0.897773 97.7018 0.675768 98.9065 1.60625C100.111 2.53715 100.333 4.26868 99.4026 5.47343L91.4631 15.7469C91.7473 16.4847 91.9045 17.2859 91.9045 18.1238V33.5613C91.9045 37.2153 88.9422 40.1773 85.2883 40.1775H14.7137C11.0596 40.1775 8.09649 37.2154 8.09649 33.5613V18.1238C8.0965 17.2863 8.25297 16.4854 8.53692 15.7478L0.597429 5.47343C-0.333186 4.26869 -0.111098 2.53711 1.09353 1.60625ZM28.7733 19.7781C24.6625 19.7781 21.33 23.1107 21.33 27.2215C21.3302 31.3321 24.6626 34.6648 28.7733 34.6648C32.8839 34.6646 36.2165 31.332 36.2167 27.2215C36.2167 23.1108 32.884 19.7783 28.7733 19.7781ZM71.7794 19.7781C67.6687 19.7783 64.3361 23.1107 64.336 27.2215C64.3363 31.332 67.6688 34.6647 71.7794 34.6648C75.8901 34.6648 79.2226 31.3321 79.2228 27.2215C79.2228 23.1107 75.8903 19.7781 71.7794 19.7781Z" fill="black"/>
</svg>
