<svg width="100" height="100" viewBox="0 0 100 100" fill="none" xmlns="http://www.w3.org/2000/svg">
<g clip-path="url(#clip0_1039_691)">
<path fill-rule="evenodd" clip-rule="evenodd" d="M97.2212 3.78809L87.848 15.918Z" fill="#8AB000"/>
<path d="M97.2212 3.78809L87.848 15.918" stroke="#769616" stroke-width="5.51361" stroke-linecap="round"/>
<path fill-rule="evenodd" clip-rule="evenodd" d="M97.1715 1.02466C98.1716 1.05112 98.8514 1.44151 99.3345 2.01404C94.8642 7.32673 94.1111 8.17084 88.0084 15.7351C85.7599 18.6441 83.4175 17.1406 85.6661 14.2316L95.0393 2.10167C95.5443 1.42769 96.3296 1.04737 97.1715 1.02466Z" fill="white" fill-opacity="0.298039"/>
<path fill-rule="evenodd" clip-rule="evenodd" d="M99.3532 2.04175C99.6264 2.36793 100.591 3.81628 99.4028 5.47389L90.0296 17.6038C87.781 20.5128 87.4936 16.2534 87.4936 16.2534C87.4936 16.2534 95.7298 6.30686 99.3532 2.04175Z" fill="#263238" fill-opacity="0.2"/>
<path fill-rule="evenodd" clip-rule="evenodd" d="M97.7743 1.54272C98.7407 1.54272 99.8913 1.85498 99.5921 3.30396C99.3637 4.41021 89.3129 16.7007 89.3129 16.7007C87.0643 19.6097 83.8136 18.1924 86.0622 15.2838L95.4009 3.21404C95.9748 2.57446 96.7429 1.57404 97.7743 1.54272Z" fill="#8AB000"/>
<path fill-rule="evenodd" clip-rule="evenodd" d="M2.77881 3.78809L12.152 15.918Z" fill="#8AB000"/>
<path d="M2.77881 3.78809L12.152 15.918" stroke="#769616" stroke-width="5.51361" stroke-linecap="round"/>
<path fill-rule="evenodd" clip-rule="evenodd" d="M2.82852 1.02466C1.82843 1.05112 1.14863 1.44151 0.665527 2.01404C5.13583 7.32673 5.88893 8.17084 11.9916 15.7351C14.2401 18.6441 16.5825 17.1406 14.3339 14.2316L4.96075 2.10167C4.45572 1.42769 3.67038 1.04737 2.82852 1.02466Z" fill="white" fill-opacity="0.298039"/>
<path fill-rule="evenodd" clip-rule="evenodd" d="M0.647075 2.04175C0.373834 2.36793 -0.590573 3.81628 0.597475 5.47389L9.97066 17.6038C12.2192 20.5128 12.5067 16.2534 12.5067 16.2534C12.5067 16.2534 4.27049 6.30686 0.647075 2.04175Z" fill="#263238" fill-opacity="0.2"/>
<path fill-rule="evenodd" clip-rule="evenodd" d="M2.22591 1.54272C1.25954 1.54272 0.108979 1.85498 0.408135 3.30396C0.636534 4.41021 10.6874 16.7007 10.6874 16.7007C12.9359 19.6097 16.1866 18.1924 13.9381 15.2838L4.59936 3.21404C4.02541 2.57446 3.2573 1.57404 2.22591 1.54272Z" fill="#8AB000"/>
<path d="M85.2876 11.5071H14.713C11.0589 11.5071 8.09668 14.4693 8.09668 18.1234V33.5615C8.09668 37.2156 11.0589 40.1779 14.713 40.1779H85.2876C88.9417 40.1779 91.904 37.2156 91.904 33.5615V18.1234C91.904 14.4693 88.9417 11.5071 85.2876 11.5071Z" fill="#AEEA00"/>
<path d="M85.2876 18.1233H14.713C11.0589 18.1233 8.09668 21.0855 8.09668 24.7396V33.5614C8.09668 37.2155 11.0589 40.1777 14.713 40.1777H85.2876C88.9417 40.1777 91.904 37.2155 91.904 33.5614V24.7396C91.904 21.0855 88.9417 18.1233 85.2876 18.1233Z" fill="#263238" fill-opacity="0.2"/>
<path d="M85.2876 11.5071H14.713C11.0589 11.5071 8.09668 14.4693 8.09668 18.1234V26.9452C8.09668 30.5993 11.0589 33.5615 14.713 33.5615H85.2876C88.9417 33.5615 91.904 30.5993 91.904 26.9452V18.1234C91.904 14.4693 88.9417 11.5071 85.2876 11.5071Z" fill="white" fill-opacity="0.298039"/>
<path d="M85.2876 13.7124H14.713C11.0589 13.7124 8.09668 16.2189 8.09668 19.3108V32.3739C8.09668 35.4658 11.0589 37.9723 14.713 37.9723H85.2876C88.9417 37.9723 91.904 35.4658 91.904 32.3739V19.3108C91.904 16.2189 88.9417 13.7124 85.2876 13.7124Z" fill="#AEEA00"/>
<path d="M85.2876 42.3833H14.713C11.0589 42.3833 8.09668 45.3455 8.09668 48.9996V93.1085C8.09668 96.7626 11.0589 99.7249 14.713 99.7249H85.2876C88.9417 99.7249 91.904 96.7626 91.904 93.1085V48.9996C91.904 45.3455 88.9417 42.3833 85.2876 42.3833Z" fill="#1976D2"/>
<path d="M85.2876 71.054H14.713C11.0589 71.054 8.09668 74.0162 8.09668 77.6703V93.1084C8.09668 96.7625 11.0589 99.7247 14.713 99.7247H85.2876C88.9417 99.7247 91.904 96.7625 91.904 93.1084V77.6703C91.904 74.0162 88.9417 71.054 85.2876 71.054Z" fill="#263238" fill-opacity="0.2"/>
<path d="M85.2876 42.3833H14.713C11.0589 42.3833 8.09668 45.3455 8.09668 48.9996V64.4377C8.09668 68.0918 11.0589 71.0541 14.713 71.0541H85.2876C88.9417 71.0541 91.904 68.0918 91.904 64.4377V48.9996C91.904 45.3455 88.9417 42.3833 85.2876 42.3833Z" fill="white" fill-opacity="0.2"/>
<path d="M85.2876 44.5886H14.713C11.0589 44.5886 8.09668 47.3231 8.09668 50.6961V91.4121C8.09668 94.7851 11.0589 97.5193 14.713 97.5193H85.2876C88.9417 97.5193 91.904 94.7851 91.904 91.4121V50.6961C91.904 47.3231 88.9417 44.5886 85.2876 44.5886Z" fill="#1976D2"/>
<path d="M50.0007 57.2695C43.6475 57.2695 38.2682 61.6466 36.6948 67.5257H43.7806C45.0032 65.3526 47.2986 63.8859 50.0007 63.8859C53.9985 63.8859 57.1684 67.0558 57.1684 71.0536C57.1684 75.0514 53.9985 78.2213 50.0007 78.2213C47.1173 78.2213 44.6828 76.5612 43.5394 74.142H36.5828C37.9992 80.2418 43.49 84.8376 50.0007 84.8376C57.5743 84.8376 63.7848 78.6271 63.7848 71.0536C63.7848 63.48 57.5743 57.2695 50.0007 57.2695Z" fill="#0D47A1"/>
<path d="M50.0006 92.1154C61.6329 92.1154 71.0627 82.6857 71.0627 71.0535C71.0627 59.4212 61.6329 49.9915 50.0006 49.9915C38.3683 49.9915 28.9385 59.4212 28.9385 71.0535C28.9385 82.6857 38.3683 92.1154 50.0006 92.1154Z" stroke="#0D47A1" stroke-width="4.19034" stroke-linecap="round"/>
<path d="M28.7728 34.6642C32.8836 34.6642 36.2162 30.838 36.2162 26.1181C36.2162 21.3982 32.8836 17.572 28.7728 17.572C24.6619 17.572 21.3293 21.3982 21.3293 26.1181C21.3293 30.838 24.6619 34.6642 28.7728 34.6642Z" fill="#263238" fill-opacity="0.2"/>
<path d="M28.7728 34.6643C32.8836 34.6643 36.2162 31.3318 36.2162 27.221C36.2162 23.1101 32.8836 19.7776 28.7728 19.7776C24.6619 19.7776 21.3293 23.1101 21.3293 27.221C21.3293 31.3318 24.6619 34.6643 28.7728 34.6643Z" fill="white"/>
<path d="M71.7793 34.6642C75.8902 34.6642 79.2228 30.838 79.2228 26.1181C79.2228 21.3982 75.8902 17.572 71.7793 17.572C67.6685 17.572 64.3359 21.3982 64.3359 26.1181C64.3359 30.838 67.6685 34.6642 71.7793 34.6642Z" fill="#263238" fill-opacity="0.2"/>
<path d="M71.7793 34.6643C75.8902 34.6643 79.2228 31.3318 79.2228 27.221C79.2228 23.1101 75.8902 19.7776 71.7793 19.7776C67.6685 19.7776 64.3359 23.1101 64.3359 27.221C64.3359 31.3318 67.6685 34.6643 71.7793 34.6643Z" fill="white"/>
<path fill-rule="evenodd" clip-rule="evenodd" d="M2.83319 1.00105C2.30789 0.986548 1.78938 1.12243 1.33875 1.39276C0.888112 1.6631 0.524122 2.05669 0.289653 2.52699C0.0551846 2.99728 -0.0399979 3.52469 0.0153196 4.04727C0.0706372 4.56985 0.27415 5.06577 0.601884 5.47655L8.54926 15.763C8.26919 16.4977 8.10129 17.2881 8.10129 18.1235V26.9453V33.2643V33.5616C8.10129 37.2271 11.0522 40.178 14.7177 40.178H85.2922C88.9577 40.178 91.9086 37.2271 91.9086 33.5616V24.7399V18.4208V18.1235C91.9086 17.2848 91.7386 16.4915 91.4563 15.7544L99.3994 5.47655C99.7312 5.06031 99.9354 4.55696 99.9873 4.02721C100.039 3.49746 99.9368 2.96395 99.6922 2.49118C99.4476 2.01841 99.0714 1.62652 98.609 1.36288C98.1465 1.09924 97.6177 0.975157 97.0863 1.00549C96.6851 1.02811 96.2937 1.13817 95.9396 1.32788C95.5854 1.5176 95.277 1.78236 95.0359 2.10377L87.4675 11.899C86.7834 11.6611 86.0596 11.5072 85.2922 11.5072H14.7177C13.9489 11.5072 13.2233 11.6593 12.538 11.899L4.9654 2.10377C4.71612 1.77112 4.39484 1.49919 4.0256 1.30823C3.65637 1.11727 3.24873 1.01223 2.83319 1.00105ZM14.7177 42.3834C14.2595 42.3834 13.8138 42.4295 13.3823 42.5178C10.3619 43.1267 8.10129 45.7595 8.10129 48.936V49V92.6222V92.686V93.1081C8.10129 96.7736 11.0522 99.7244 14.7177 99.7244H85.2922C88.9577 99.7244 91.9086 96.7736 91.9086 93.1081V48.9992V48.9354C91.9086 45.7589 89.648 43.1261 86.6276 42.5172C86.1961 42.4312 85.7504 42.3826 85.2922 42.3826L14.7177 42.3834Z" fill="url(#paint0_radial_1039_691)"/>
</g>
<defs>
<radialGradient id="paint0_radial_1039_691" cx="0" cy="0" r="1" gradientUnits="userSpaceOnUse" gradientTransform="translate(0.00555268 1.00296) rotate(90) scale(98.7382 105.862)">
<stop stop-color="white" stop-opacity="0.0980392"/>
<stop offset="1" stop-color="white" stop-opacity="0"/>
</radialGradient>
<clipPath id="clip0_1039_691">
<rect width="100" height="100" fill="white"/>
</clipPath>
</defs>
</svg>
