<svg width="100" height="100" viewBox="0 0 100 100" fill="none" xmlns="http://www.w3.org/2000/svg">
<g clip-path="url(#clip0_1039_749)">
<g clip-path="url(#clip1_1039_749)">
<path d="M49.25 48L10.75 88.25C12 92.5 16 95.75 20.75 95.75C22.75 95.75 24.5 95.25 26 94.25L69.5 69.5L49.25 48Z" fill="#EA4335"/>
<path d="M88.2498 40.9995L69.4998 30.2495L48.4998 48.7495L69.7498 69.4995L88.4998 58.9995C91.7498 57.2495 93.9998 53.7495 93.9998 49.9995C93.7498 46.2495 91.4998 42.7495 88.2498 40.9995Z" fill="#FBBC04"/>
<path d="M10.75 11.75C10.5 12.5 10.5 13.5 10.5 14.5V85.75C10.5 86.75 10.5 87.5 10.75 88.5L50.75 49.25L10.75 11.75Z" fill="#4285F4"/>
<path d="M49.5 50L69.5 30.25L26.25 5.75C24.75 4.75 22.75 4.25 20.75 4.25C16 4.25 11.75 7.5 10.75 11.75L49.5 50Z" fill="#34A853"/>
</g>
</g>
<defs>
<clipPath id="clip0_1039_749">
<rect width="100" height="100" fill="white"/>
</clipPath>
<clipPath id="clip1_1039_749">
<rect width="100" height="100" fill="white"/>
</clipPath>
</defs>
</svg>
