<svg width="28" height="28" viewBox="0 0 28 28" fill="none" xmlns="http://www.w3.org/2000/svg">
<g clip-path="url(#clip0_1025_607)">
<rect width="28" height="28" rx="8" fill="#073042"/>
<rect x="-14" y="-14" width="56" height="56" fill="url(#paint0_linear_1025_607)"/>
<mask id="mask0_1025_607" style="mask-type:alpha" maskUnits="userSpaceOnUse" x="3" y="3" width="22" height="22">
<rect x="3.5" y="3.5" width="21" height="21" fill="#89B4F3"/>
</mask>
<g mask="url(#mask0_1025_607)">
<path fill-rule="evenodd" clip-rule="evenodd" d="M14 4.8125C15.2104 4.8125 16.2422 5.23906 17.0953 6.09219C17.9484 6.94531 18.375 7.97708 18.375 9.1875H20.125C20.6063 9.1875 21.0182 9.35885 21.3609 9.70156C21.7036 10.0443 21.875 10.4563 21.875 10.9375V21.4375C21.875 21.9187 21.7036 22.3307 21.3609 22.6734C21.0182 23.0161 20.6062 23.1875 20.125 23.1875H7.875C7.39375 23.1875 6.98177 23.0161 6.63906 22.6734C6.29635 22.3307 6.125 21.9187 6.125 21.4375V10.9375C6.125 10.4563 6.29636 10.0443 6.63906 9.70156C6.98177 9.35885 7.39375 9.1875 7.875 9.1875H9.625C9.625 7.97708 10.0516 6.94531 10.9047 6.09219C11.7578 5.23906 12.7896 4.8125 14 4.8125ZM15.479 13.2994C16.01 13.5888 16.434 13.9867 16.7512 14.4931C17.0684 14.9995 17.2269 15.5559 17.2269 16.1622C17.2269 17.0579 16.9132 17.8192 16.2858 18.4462C15.6583 19.0732 14.8964 19.3867 14 19.3867C13.1036 19.3867 12.3417 19.0732 11.7142 18.4462C11.0868 17.8192 10.7731 17.0579 10.7731 16.1622C10.7731 15.5559 10.9316 14.9995 11.2488 14.4931C11.566 13.9867 11.9901 13.5888 12.521 13.2994V12.0489C11.6522 12.3727 10.9523 12.9084 10.4214 13.656C9.89047 14.4035 9.625 15.2389 9.625 16.1622C9.625 16.7685 9.73877 17.3369 9.96631 17.8674C10.1939 18.398 10.5059 18.8613 10.9023 19.2575C11.2988 19.6537 11.7625 19.9654 12.2934 20.1928C12.8244 20.4202 13.3932 20.5339 14 20.5339C14.6068 20.5339 15.1756 20.4202 15.7066 20.1928C16.2375 19.9654 16.7012 19.6537 17.0977 19.2575C17.4941 18.8613 17.8061 18.398 18.0337 17.8674C18.2612 17.3369 18.375 16.7685 18.375 16.1622C18.375 15.2389 18.1095 14.4035 17.5786 13.656C17.0477 12.9084 16.3478 12.3727 15.479 12.0489V13.2994ZM14 6.5625C13.2708 6.5625 12.651 6.81771 12.1406 7.32813C11.6302 7.83854 11.375 8.45833 11.375 9.1875H13.3484V15.6764L12.5106 14.8393L11.6005 15.7488L14 18.1465L16.3995 15.7488L15.4894 14.8393L14.6516 15.6764V9.1875H16.625C16.625 8.45833 16.3698 7.83854 15.8594 7.32813C15.349 6.81771 14.7292 6.5625 14 6.5625Z" fill="#89B4F3"/>
</g>
</g>
<defs>
<linearGradient id="paint0_linear_1025_607" x1="-14" y1="-14" x2="42" y2="42" gradientUnits="userSpaceOnUse">
<stop stop-color="#073042"/>
<stop offset="1"/>
</linearGradient>
<clipPath id="clip0_1025_607">
<rect width="28" height="28" rx="8" fill="white"/>
</clipPath>
</defs>
</svg>
