<svg width="16" height="16" viewBox="0 0 16 16" fill="none" xmlns="http://www.w3.org/2000/svg">
<mask id="mask0_1025_601" style="mask-type:alpha" maskUnits="userSpaceOnUse" x="0" y="0" width="16" height="16">
<rect width="16" height="16" fill="#D9D9D9"/>
</mask>
<g mask="url(#mask0_1025_601)">
<path d="M8.03334 12.6667L9.93334 10.7834L8.03334 8.90004L7.33334 9.60004L8.05001 10.3167C7.7389 10.3278 7.43612 10.2778 7.14168 10.1667C6.84723 10.0556 6.58334 9.88337 6.35001 9.65004C6.12779 9.42782 5.95834 9.17226 5.84168 8.88337C5.72501 8.59448 5.66668 8.3056 5.66668 8.01671C5.66668 7.82782 5.69168 7.63893 5.74168 7.45004C5.79168 7.26115 5.86112 7.07782 5.95001 6.90004L5.21668 6.16671C5.02779 6.44448 4.8889 6.73893 4.80001 7.05004C4.71112 7.36115 4.66668 7.67782 4.66668 8.00004C4.66668 8.42226 4.75001 8.83893 4.91668 9.25004C5.08334 9.66115 5.32779 10.0278 5.65001 10.35C5.97223 10.6723 6.33334 10.9139 6.73334 11.075C7.13334 11.2362 7.54445 11.3223 7.96668 11.3334L7.33334 11.9667L8.03334 12.6667ZM10.7833 9.83337C10.9722 9.5556 11.1111 9.26115 11.2 8.95004C11.2889 8.63893 11.3333 8.32226 11.3333 8.00004C11.3333 7.57782 11.2528 7.15837 11.0917 6.74171C10.9306 6.32504 10.6889 5.9556 10.3667 5.63337C10.0445 5.31115 9.68057 5.07226 9.27501 4.91671C8.86945 4.76115 8.45557 4.68337 8.03334 4.68337L8.66668 4.03337L7.96668 3.33337L6.06668 5.21671L7.96668 7.10004L8.66668 6.40004L7.93334 5.66671C8.23334 5.66671 8.5389 5.72504 8.85001 5.84171C9.16112 5.95837 9.42779 6.12782 9.65001 6.35004C9.87223 6.57226 10.0417 6.82782 10.1583 7.11671C10.275 7.4056 10.3333 7.69448 10.3333 7.98337C10.3333 8.17226 10.3083 8.36115 10.2583 8.55004C10.2083 8.73893 10.1389 8.92226 10.05 9.10004L10.7833 9.83337ZM8.00001 14.6667C7.07779 14.6667 6.21112 14.4917 5.40001 14.1417C4.5889 13.7917 3.88334 13.3167 3.28334 12.7167C2.68334 12.1167 2.20834 11.4112 1.85834 10.6C1.50834 9.78893 1.33334 8.92226 1.33334 8.00004C1.33334 7.07782 1.50834 6.21115 1.85834 5.40004C2.20834 4.58893 2.68334 3.88337 3.28334 3.28337C3.88334 2.68337 4.5889 2.20837 5.40001 1.85837C6.21112 1.50837 7.07779 1.33337 8.00001 1.33337C8.92223 1.33337 9.7889 1.50837 10.6 1.85837C11.4111 2.20837 12.1167 2.68337 12.7167 3.28337C13.3167 3.88337 13.7917 4.58893 14.1417 5.40004C14.4917 6.21115 14.6667 7.07782 14.6667 8.00004C14.6667 8.92226 14.4917 9.78893 14.1417 10.6C13.7917 11.4112 13.3167 12.1167 12.7167 12.7167C12.1167 13.3167 11.4111 13.7917 10.6 14.1417C9.7889 14.4917 8.92223 14.6667 8.00001 14.6667ZM8.00001 13.3334C9.4889 13.3334 10.75 12.8167 11.7833 11.7834C12.8167 10.75 13.3333 9.48893 13.3333 8.00004C13.3333 6.51115 12.8167 5.25004 11.7833 4.21671C10.75 3.18337 9.4889 2.66671 8.00001 2.66671C6.51112 2.66671 5.25001 3.18337 4.21668 4.21671C3.18334 5.25004 2.66668 6.51115 2.66668 8.00004C2.66668 9.48893 3.18334 10.75 4.21668 11.7834C5.25001 12.8167 6.51112 13.3334 8.00001 13.3334Z" fill="black"/>
</g>
</svg>
