<svg width="16" height="16" viewBox="0 0 16 16" fill="none" xmlns="http://www.w3.org/2000/svg">
<mask id="mask0_1025_604" style="mask-type:alpha" maskUnits="userSpaceOnUse" x="0" y="0" width="16" height="16">
<rect width="16" height="16" fill="#D9D9D9"/>
</mask>
<g mask="url(#mask0_1025_604)">
<path d="M8.03398 12.6673L9.93398 10.784L8.03398 8.90065L7.33398 9.60065L8.05065 10.3173C7.73954 10.3284 7.43676 10.2784 7.14232 10.1673C6.84787 10.0562 6.58398 9.88398 6.35065 9.65065C6.12843 9.42843 5.95898 9.17287 5.84232 8.88398C5.72565 8.59509 5.66732 8.30621 5.66732 8.01732C5.66732 7.82843 5.69232 7.63954 5.74232 7.45065C5.79232 7.26176 5.86176 7.07843 5.95065 6.90065L5.21732 6.16732C5.02843 6.4451 4.88954 6.73954 4.80065 7.05065C4.71176 7.36176 4.66732 7.67843 4.66732 8.00065C4.66732 8.42287 4.75065 8.83954 4.91732 9.25065C5.08398 9.66176 5.32843 10.0284 5.65065 10.3507C5.97287 10.6729 6.33398 10.9145 6.73398 11.0757C7.13398 11.2368 7.54509 11.3229 7.96732 11.334L7.33398 11.9673L8.03398 12.6673ZM10.784 9.83398C10.9729 9.55621 11.1118 9.26176 11.2007 8.95065C11.2895 8.63954 11.334 8.32287 11.334 8.00065C11.334 7.57843 11.2534 7.15898 11.0923 6.74232C10.9312 6.32565 10.6895 5.95621 10.3673 5.63398C10.0451 5.31176 9.68121 5.07287 9.27565 4.91732C8.8701 4.76176 8.45621 4.68398 8.03398 4.68398L8.66732 4.03398L7.96732 3.33398L6.06732 5.21732L7.96732 7.10065L8.66732 6.40065L7.93398 5.66732C8.23398 5.66732 8.53954 5.72565 8.85065 5.84232C9.16176 5.95898 9.42843 6.12843 9.65065 6.35065C9.87287 6.57287 10.0423 6.82843 10.159 7.11732C10.2757 7.40621 10.334 7.6951 10.334 7.98398C10.334 8.17287 10.309 8.36176 10.259 8.55065C10.209 8.73954 10.1395 8.92287 10.0507 9.10065L10.784 9.83398ZM8.00065 14.6673C7.07843 14.6673 6.21176 14.4923 5.40065 14.1423C4.58954 13.7923 3.88398 13.3173 3.28398 12.7173C2.68398 12.1173 2.20898 11.4118 1.85898 10.6007C1.50898 9.78954 1.33398 8.92287 1.33398 8.00065C1.33398 7.07843 1.50898 6.21176 1.85898 5.40065C2.20898 4.58954 2.68398 3.88398 3.28398 3.28398C3.88398 2.68398 4.58954 2.20898 5.40065 1.85898C6.21176 1.50898 7.07843 1.33398 8.00065 1.33398C8.92287 1.33398 9.78954 1.50898 10.6007 1.85898C11.4118 2.20898 12.1173 2.68398 12.7173 3.28398C13.3173 3.88398 13.7923 4.58954 14.1423 5.40065C14.4923 6.21176 14.6673 7.07843 14.6673 8.00065C14.6673 8.92287 14.4923 9.78954 14.1423 10.6007C13.7923 11.4118 13.3173 12.1173 12.7173 12.7173C12.1173 13.3173 11.4118 13.7923 10.6007 14.1423C9.78954 14.4923 8.92287 14.6673 8.00065 14.6673Z" fill="black"/>
</g>
</svg>
