<svg width="16" height="16" viewBox="0 0 16 16" fill="none" xmlns="http://www.w3.org/2000/svg">
<mask id="mask0_903_732" style="mask-type:alpha" maskUnits="userSpaceOnUse" x="0" y="0" width="16" height="16">
<rect width="16" height="16" fill="#D9D9D9"/>
</mask>
<g mask="url(#mask0_903_732)">
<path d="M3.39999 10.7C3.15555 10.2777 2.97221 9.8444 2.84999 9.39996C2.72777 8.95551 2.66666 8.49996 2.66666 8.03329C2.66666 6.5444 3.18332 5.27774 4.21666 4.23329C5.24999 3.18885 6.5111 2.66663 7.99999 2.66663H8.11666L7.04999 1.59996L7.98332 0.666626L10.65 3.33329L7.98332 5.99996L7.04999 5.06663L8.11666 3.99996H7.99999C6.88888 3.99996 5.94443 4.39163 5.16666 5.17496C4.38888 5.95829 3.99999 6.91107 3.99999 8.03329C3.99999 8.32218 4.03332 8.60552 4.09999 8.88329C4.16666 9.16107 4.26666 9.43329 4.39999 9.69996L3.39999 10.7ZM8.01666 15.3333L5.34999 12.6666L8.01666 9.99996L8.94999 10.9333L7.88332 12H7.99999C9.1111 12 10.0555 11.6083 10.8333 10.825C11.6111 10.0416 12 9.08885 12 7.96663C12 7.67774 11.9667 7.3944 11.9 7.11663C11.8333 6.83885 11.7333 6.56663 11.6 6.29996L12.6 5.29996C12.8444 5.72218 13.0278 6.15552 13.15 6.59996C13.2722 7.0444 13.3333 7.49996 13.3333 7.96663C13.3333 9.45551 12.8167 10.7222 11.7833 11.7666C10.75 12.8111 9.48888 13.3333 7.99999 13.3333H7.88332L8.94999 14.4L8.01666 15.3333Z" fill="black"/>
</g>
</svg>
